<svg width="34" height="34" viewBox="0 0 34 34" fill="none" xmlns="http://www.w3.org/2000/svg">
    <path d="M9.90227 9.47944C9.96579 9.47923 10.0293 9.47902 10.0947 9.47881C10.3054 9.47828 10.516 9.4787 10.7266 9.47912C10.8785 9.47894 11.0304 9.4787 11.1823 9.47841C11.5934 9.47781 12.0044 9.47804 12.4155 9.47846C12.8465 9.4788 13.2776 9.47849 13.7087 9.47828C14.4788 9.47802 15.249 9.47843 16.0191 9.47911C16.7161 9.4797 17.413 9.4796 18.1099 9.47899C18.921 9.47828 19.7321 9.47801 20.5431 9.47841C20.9718 9.47861 21.4005 9.47864 21.8292 9.4782C22.2324 9.47782 22.6356 9.47809 23.0388 9.47885C23.1863 9.47903 23.3339 9.47898 23.4814 9.47868C24.8228 9.47626 26.0075 9.54954 27.0475 10.4999C27.9481 11.4294 28.1097 12.4488 28.1075 13.6921C28.1078 13.7995 28.1081 13.9069 28.1085 14.0143C28.1094 14.3043 28.1094 14.5944 28.1093 14.8844C28.1092 15.1273 28.1095 15.3702 28.1098 15.6131C28.1106 16.1866 28.1106 16.76 28.1102 17.3334C28.1098 17.9233 28.1106 18.5132 28.112 19.1031C28.1132 19.6111 28.1136 20.1192 28.1134 20.6272C28.1133 20.9299 28.1134 21.2327 28.1144 21.5354C28.1152 21.8202 28.1151 22.1051 28.1142 22.3899C28.114 22.4939 28.1142 22.5979 28.1148 22.7018C28.1208 23.9159 27.8615 24.9106 27.0031 25.805C26.7448 26.0404 26.4752 26.2081 26.1635 26.3635C26.1159 26.3893 26.0683 26.415 26.0192 26.4416C25.2053 26.85 24.3021 26.7652 23.4212 26.7297C19.1872 26.4125 19.1872 26.4125 15.5052 28.1428C15.3723 28.2664 15.2438 28.3933 15.1159 28.5221C14.7819 28.8544 14.3934 29.0958 13.9955 29.3441C13.8064 29.4636 13.6221 29.5897 13.4371 29.7154C13.369 29.7612 13.3009 29.807 13.2307 29.8542C13.0917 29.9477 12.9528 30.0415 12.8141 30.1354C12.7471 30.1804 12.6802 30.2253 12.6111 30.2716C12.5514 30.3119 12.4917 30.3522 12.4301 30.3937C12.2846 30.4807 12.2846 30.4807 12.1517 30.4807C12.1517 29.2535 12.1517 28.0263 12.1517 26.7619C11.2479 26.7672 11.2479 26.7672 10.3441 26.7739C9.08583 26.7802 7.90251 26.6521 6.93055 25.7617C6.24903 25.0333 5.90267 24.1669 5.90023 23.1798C5.90003 23.135 5.89983 23.0902 5.89963 23.0441C5.89906 22.8948 5.89895 22.7456 5.89885 22.5963C5.89855 22.489 5.89821 22.3816 5.89786 22.2742C5.89699 21.9831 5.89656 21.6919 5.89626 21.4007C5.89607 21.2185 5.89579 21.0363 5.8955 20.8541C5.89459 20.2833 5.89395 19.7124 5.89369 19.1416C5.89339 18.4842 5.89223 17.8267 5.8903 17.1693C5.88886 16.6602 5.8882 16.151 5.88811 15.6418C5.88804 15.3382 5.88765 15.0346 5.88646 14.731C5.88536 14.445 5.88523 14.1591 5.88581 13.8731C5.88586 13.7688 5.88557 13.6644 5.88491 13.56C5.87768 12.3446 6.13573 11.3482 6.99592 10.4532C7.79994 9.71938 8.83973 9.47399 9.90227 9.47944ZM12.0853 13.7463C11.7847 14.2033 11.6184 14.6824 11.7141 15.2303C11.8742 15.7891 12.1953 16.1847 12.6941 16.4749C13.1095 16.6813 13.6271 16.6759 14.0664 16.5463C14.517 16.34 14.863 16.0377 15.0798 15.5878C15.2751 15.057 15.2416 14.5891 15.0072 14.0783C14.7577 13.6617 14.4751 13.4046 14.0319 13.1985C13.2848 13.0293 12.6226 13.1847 12.0853 13.7463ZM19.0974 13.9268C18.7928 14.3628 18.811 14.825 18.8588 15.3401C18.9195 15.5415 19.0035 15.7 19.1244 15.8713C19.1655 15.9316 19.2066 15.9918 19.2489 16.0539C19.6259 16.4531 20.0304 16.6054 20.5687 16.6308C21.0584 16.6205 21.4189 16.4723 21.7853 16.1481C22.1417 15.7701 22.3153 15.3982 22.341 14.8794C22.3229 14.3665 22.0996 13.9543 21.757 13.5805C21.3533 13.2114 20.9146 13.1188 20.3822 13.1266C19.8202 13.19 19.4544 13.5113 19.0974 13.9268ZM12.5502 20.1877C12.7929 21.1585 13.1038 21.8125 13.8119 22.5119C13.8526 22.5541 13.8934 22.5963 13.9354 22.6398C14.7591 23.4336 15.9662 23.7538 17.0845 23.7384C18.2819 23.689 19.3654 23.2185 20.2139 22.3703C20.471 22.0861 20.6684 21.7854 20.851 21.4494C20.8917 21.3764 20.8917 21.3764 20.9332 21.3018C21.1234 20.9428 21.2494 20.5989 21.2494 20.1877C18.3787 20.1877 15.5079 20.1877 12.5502 20.1877Z" fill="white"/>
    <path d="M28.7539 15.0078C29.9492 15.0078 29.9492 15.0078 30.4805 15.2734C30.8092 15.6108 30.8952 15.9234 30.8982 16.3874C30.8986 16.4313 30.8991 16.4752 30.8996 16.5204C30.9008 16.6648 30.9011 16.8092 30.9012 16.9536C30.9016 17.0546 30.9021 17.1555 30.9026 17.2565C30.9033 17.468 30.9036 17.6795 30.9035 17.891C30.9035 18.161 30.9053 18.4309 30.9076 18.7008C30.9091 18.9094 30.9093 19.118 30.9093 19.3266C30.9094 19.426 30.91 19.5255 30.9111 19.6249C30.9215 20.7325 30.9215 20.7325 30.495 21.173C30.4385 21.209 30.4385 21.209 30.3809 21.2458C30.3432 21.2711 30.3055 21.2964 30.2667 21.3224C29.7938 21.564 29.2838 21.4492 28.7539 21.4492C28.7539 19.3236 28.7539 17.1979 28.7539 15.0078Z" fill="white"/>
    <path d="M5.24586 15.008C5.24586 17.1337 5.24586 19.2594 5.24586 21.4494C3.88902 21.4494 3.88902 21.4494 3.46949 21.0966C3.19203 20.7652 3.09599 20.4931 3.09403 20.0623C3.09357 20.0184 3.09312 19.9745 3.09265 19.9293C3.09144 19.7853 3.09169 19.6413 3.09207 19.4972C3.09177 19.3963 3.09141 19.2954 3.09101 19.1945C3.09042 18.9834 3.09058 18.7723 3.09124 18.5612C3.092 18.2918 3.09066 18.0224 3.08872 17.753C3.0875 17.5447 3.08752 17.3364 3.0879 17.1281C3.08791 17.0288 3.08752 16.9296 3.08669 16.8303C3.08288 16.2983 3.08208 15.8613 3.38649 15.4065C3.94313 14.8641 4.42433 15.008 5.24586 15.008Z" fill="white"/>
    <path d="M17.9961 3.51966C18.3601 3.85663 18.6284 4.20983 18.6809 4.71576C18.7024 5.29584 18.5855 5.67658 18.2783 6.15931C18.0768 6.3608 17.8516 6.51158 17.5976 6.64076C17.5538 6.64076 17.51 6.64076 17.4648 6.64076C17.4648 7.14478 17.4648 7.64881 17.4648 8.1681C17.1142 8.1681 16.7636 8.1681 16.4023 8.1681C16.4023 7.66408 16.4023 7.16006 16.4023 6.64076C16.2708 6.59693 16.1393 6.5531 16.0039 6.50795C15.5575 6.21405 15.3057 5.84916 15.1572 5.34169C15.0978 4.76277 15.2193 4.2915 15.5224 3.79359C16.1964 3.15709 17.2044 2.93722 17.9961 3.51966Z" fill="white"/>
</svg>
