<svg width="14" height="14" viewBox="0 0 14 14" fill="none" xmlns="http://www.w3.org/2000/svg">
    <path d="M3.49979 9.5234C2.88509 9.23152 2.35308 8.79064 1.95212 8.24084C1.55116 7.69104 1.29396 7.04974 1.20389 6.37525C1.11383 5.70076 1.19376 5.01445 1.43641 4.37871C1.67906 3.74296 2.07675 3.17794 2.59333 2.735C3.1099 2.29205 3.72899 1.98523 4.39431 1.84241C5.05963 1.69959 5.7501 1.72531 6.40295 1.91723C7.05581 2.10915 7.65035 2.46119 8.13254 2.94134C8.61472 3.42149 8.96927 4.01453 9.16396 4.66657H10.2081C10.8798 4.6654 11.5264 4.92176 12.0148 5.3829C12.5032 5.84404 12.7963 6.47486 12.8336 7.14552C12.871 7.81618 12.6499 8.47565 12.2157 8.9882C11.7816 9.50074 11.1675 9.82736 10.4998 9.90082" stroke="#FF8904" stroke-width="1.16667" stroke-linecap="round" stroke-linejoin="round"/>
    <path d="M7.58398 7L5.83398 9.91667H8.16732L6.41732 12.8333" stroke="#FF8904" stroke-width="1.16667" stroke-linecap="round" stroke-linejoin="round"/>
</svg>
