<svg width="20" height="20" viewBox="0 0 20 20" fill="none" xmlns="http://www.w3.org/2000/svg">
    <g clip-path="url(#clip0_4_5859)">
        <path d="M12.6393 4.04387C12.9181 4.3271 13.1228 4.67199 13.3203 5.01448C13.3349 5.03953 13.3495 5.06458 13.3646 5.09039C13.3782 5.11479 13.3918 5.13918 13.4058 5.16432C13.4176 5.18538 13.4294 5.20645 13.4416 5.22816C13.5411 5.46781 13.5641 5.67307 13.5451 5.93077C13.543 5.95916 13.541 5.98755 13.5389 6.0168C13.5135 6.35173 13.4745 6.68535 13.4351 7.01887C13.4241 7.1123 13.4132 7.20572 13.4024 7.29917C13.3958 7.35654 13.3891 7.41388 13.3822 7.47122C13.3644 7.62505 13.3581 7.7748 13.3594 7.92952C13.3932 7.93495 13.4271 7.94039 13.462 7.946C13.7828 7.99761 14.1034 8.04984 14.424 8.10275C14.5887 8.12992 14.7535 8.15686 14.9184 8.18326C15.0778 8.20879 15.2371 8.23494 15.3963 8.26152C15.4568 8.27151 15.5173 8.28127 15.5779 8.2908C16.0061 8.35841 16.4352 8.42976 16.7116 8.79698C16.8995 9.08169 16.9145 9.34944 16.875 9.68733C16.784 9.9895 16.6082 10.2017 16.333 10.3525C16.0163 10.491 15.6657 10.433 15.3351 10.3776C15.3006 10.3721 15.2661 10.3665 15.2306 10.3608C15.1179 10.3427 15.0052 10.3241 14.8926 10.3055C14.8135 10.2926 14.7344 10.2797 14.6553 10.2669C14.4901 10.24 14.3249 10.2129 14.1597 10.1856C13.9488 10.1508 13.7379 10.1165 13.5269 10.0824C13.3637 10.0559 13.2006 10.0292 13.0375 10.0025C12.9598 9.98973 12.882 9.97706 12.8043 9.96448C12.6953 9.9468 12.5863 9.92878 12.4774 9.91067C12.4458 9.90561 12.4142 9.90055 12.3817 9.89534C11.945 9.82175 11.6236 9.72157 11.3281 9.37483C11.1472 9.09363 11.1535 8.80141 11.1719 8.47639C10.7009 8.77251 10.232 9.07149 9.76562 9.37483C9.7907 9.38874 9.81578 9.40264 9.84163 9.41697C10.4037 9.72907 10.9627 10.0455 11.5136 10.3769C11.5895 10.4223 11.6657 10.4668 11.7422 10.511C12.0989 10.7235 12.3171 10.9995 12.4219 11.4061C12.4637 11.7248 12.4256 12.0234 12.2656 12.3045C12.1327 12.4724 11.9879 12.6227 11.8359 12.7733C11.8069 12.8023 11.7779 12.8314 11.748 12.8613C11.6987 12.9106 11.6491 12.9597 11.5994 13.0086C11.53 13.0791 11.4659 13.1514 11.402 13.2268C11.1994 13.4598 10.977 13.673 10.7571 13.8896C10.5862 14.059 10.4222 14.2303 10.2656 14.413C10.0959 14.6037 9.9095 14.7792 9.72762 14.9582C9.58636 15.0981 9.4475 15.2378 9.31808 15.3888C9.14997 15.5846 8.96548 15.7636 8.78173 15.9447C8.71272 16.0127 8.6438 16.0808 8.57498 16.149C8.5448 16.1787 8.51463 16.2084 8.48355 16.239C8.39683 16.3296 8.32004 16.425 8.24218 16.5233C7.95862 16.7714 7.60334 16.893 7.22656 16.8773C6.88111 16.825 6.55799 16.6512 6.34383 16.3742C6.12908 16.0398 6.07032 15.6931 6.15127 15.301C6.2852 14.8984 6.59509 14.6012 6.89208 14.3138C7.10496 14.106 7.314 13.8994 7.50733 13.6732C7.68492 13.4734 7.8806 13.2898 8.07098 13.1022C8.24512 12.9297 8.41272 12.7551 8.57225 12.5689C8.6895 12.4351 8.81951 12.3146 8.94759 12.1913C9.03227 12.1183 9.03227 12.1183 9.02343 12.0311C8.94588 11.9717 8.94588 11.9717 8.84445 11.9118C8.80598 11.888 8.76752 11.8642 8.7279 11.8398C8.68604 11.8143 8.64419 11.7888 8.60107 11.7625C8.51398 11.7088 8.42691 11.655 8.33984 11.6012C8.2748 11.5613 8.2748 11.5613 8.20846 11.5205C7.36995 11.0048 6.53069 10.4728 5.74218 9.88264C5.70019 9.85213 5.70019 9.85213 5.65734 9.82099C5.34387 9.57719 5.1546 9.17332 5.07812 8.78889C5.03283 8.13631 5.18136 7.56038 5.60873 7.04947C5.84046 6.78699 6.10622 6.60022 6.40275 6.41743C6.48696 6.36541 6.57047 6.31241 6.65389 6.25914C6.84416 6.13786 7.03529 6.01797 7.22656 5.89827C7.26268 5.87564 7.29881 5.85302 7.33604 5.82972C7.57183 5.68213 7.80775 5.53476 8.04372 5.38746C8.20123 5.28912 8.35868 5.19071 8.51613 5.09229C8.59381 5.04374 8.67149 4.99519 8.74917 4.94666C8.94898 4.82183 9.1487 4.69686 9.34829 4.57167C9.54406 4.4489 9.74007 4.32653 9.93629 4.20448C10.0009 4.16422 10.0655 4.12384 10.1299 4.08329C10.9445 3.57109 11.838 3.35794 12.6393 4.04387Z" fill="white"/>
        <path d="M18.4758 11.383C18.57 11.4666 18.6608 11.5521 18.7503 11.6409C18.7841 11.6731 18.8179 11.7053 18.8528 11.7385C18.8987 11.7869 18.8987 11.7869 18.9456 11.8362C18.9687 11.8599 18.9918 11.8837 19.0156 11.9082C19.6898 12.628 20.0171 13.5839 20.0125 14.5583C20.0122 14.6069 20.012 14.6555 20.0118 14.7055C19.9972 15.8096 19.5525 16.7126 18.7991 17.5051C18.0256 18.2572 17.0041 18.6165 15.9378 18.6331C14.8598 18.6157 13.799 18.1594 13.0471 17.3831C12.2723 16.5246 11.8899 15.4653 11.947 14.3097C12.0094 13.4257 12.35 12.6217 12.9299 11.9534C12.9702 11.9046 12.9702 11.9046 13.0113 11.8549C14.3449 10.2907 16.8894 10.1031 18.4758 11.383ZM13.8812 12.732C13.3777 13.3339 13.1457 14.0543 13.1953 14.8386C13.2556 15.4617 13.5283 16.0216 13.9456 16.4846C13.9672 16.5094 13.9888 16.5342 14.011 16.5597C14.5023 17.0896 15.238 17.3493 15.9445 17.3829C16.7372 17.3837 17.4384 17.065 18.0081 16.5237C18.5077 15.9619 18.7893 15.2854 18.7893 14.5315C18.7346 13.7137 18.4174 13.0368 17.8225 12.4734C17.2322 11.9639 16.5218 11.7551 15.7481 11.7905C15.0401 11.8467 14.3526 12.2098 13.8812 12.732Z" fill="white"/>
        <path d="M6.49912 11.4012C6.53261 11.4287 6.56609 11.4562 6.60059 11.4845C6.64176 11.5161 6.64176 11.5161 6.68375 11.5483C6.94631 11.7594 7.1442 12.0351 7.34278 12.3049C7.3736 12.3459 7.40441 12.3869 7.43616 12.4292C7.49903 12.5392 7.49903 12.5392 7.49471 12.6121C7.44548 12.7303 7.37 12.8 7.27946 12.8902C7.26149 12.9082 7.24352 12.9262 7.22501 12.9447C7.18709 12.9825 7.14903 13.0202 7.11084 13.0577C7.05225 13.1154 6.99421 13.1736 6.93621 13.2318C6.65008 13.5158 6.65008 13.5158 6.56153 13.5158C6.54778 13.4888 6.53404 13.4619 6.51987 13.4342C6.38611 13.1795 6.24175 12.9523 6.05372 12.7345C6.03096 12.7081 6.0082 12.6816 5.98475 12.6543C5.50432 12.1355 4.8194 11.8726 4.12516 11.8276C3.33262 11.8064 2.62261 12.0932 2.04005 12.6247C1.52511 13.178 1.25735 13.8992 1.24903 14.6486C1.28088 15.2036 1.43855 15.7146 1.75684 16.172C1.77925 16.2045 1.80166 16.237 1.82475 16.2705C2.22996 16.8166 2.8831 17.1984 3.55372 17.3049C4.27174 17.3969 4.94097 17.277 5.534 16.8462C5.62403 16.797 5.62403 16.797 5.70399 16.7987C5.80611 16.8488 5.86505 16.9156 5.94141 16.9997C6.16683 17.2333 6.41543 17.3849 6.71778 17.5002C6.65821 17.6645 6.53853 17.7454 6.4004 17.842C6.36409 17.8674 6.36409 17.8674 6.32705 17.8934C5.45694 18.4879 4.4008 18.7603 3.3532 18.5795C2.29169 18.3749 1.35587 17.8348 0.716805 16.9484C0.0740044 15.9984 -0.170351 14.8642 0.0410977 13.7275C0.194314 13.043 0.530475 12.4501 0.975594 11.9142C1.02031 11.855 1.02031 11.855 1.06593 11.7946C2.44863 10.2833 4.91193 10.1409 6.49912 11.4012Z" fill="white"/>
        <path d="M16.7473 2.00419C17.1303 2.41058 17.2894 2.91673 17.2806 3.46693C17.2579 4.03686 17.0478 4.49904 16.6562 4.91298C16.1906 5.34094 15.623 5.46106 15.0116 5.43632C14.501 5.39779 14.0515 5.14551 13.7042 4.77687C13.3282 4.31016 13.157 3.77406 13.2167 3.17668C13.3188 2.56907 13.5817 2.09376 14.079 1.72618C14.956 1.16027 15.9981 1.30602 16.7473 2.00419Z" fill="white"/>
    </g>
    <defs>
        <clipPath id="clip0_4_5859">
            <rect width="20" height="20" fill="white"/>
        </clipPath>
    </defs>
</svg>
