<svg width="20" height="20" viewBox="0 0 20 20" fill="none" xmlns="http://www.w3.org/2000/svg">
    <g clip-path="url(#clip0_4_7433)">
        <path d="M9.33594 3.16406C9.33813 3.23543 9.33813 3.23543 9.34036 3.30825C9.34293 3.37168 9.34552 3.43511 9.34814 3.49853C9.34903 3.52978 9.34991 3.56102 9.35081 3.59321C9.3623 3.84907 9.39939 4.05235 9.59229 4.23584C9.77316 4.31805 9.9217 4.32707 10.1172 4.29687C10.2486 4.24191 10.3182 4.19807 10.3903 4.07394C10.5049 3.78863 10.497 3.46731 10.5078 3.16406C10.9685 3.17559 11.3927 3.23289 11.8359 3.35937C11.8633 3.36706 11.8908 3.37475 11.919 3.38268C12.6735 3.59971 13.3925 3.94717 14.0234 4.41406C14.0455 4.42993 14.0675 4.44579 14.0902 4.46214C15.5421 5.51251 16.4886 7.11184 16.7969 8.86718C16.8191 9.02314 16.8303 9.17854 16.8359 9.33593C16.7966 9.33679 16.7966 9.33679 16.7566 9.33766C16.6373 9.34058 16.5181 9.34435 16.3989 9.34814C16.3577 9.34902 16.3165 9.3499 16.274 9.35081C16.2341 9.3522 16.1942 9.35358 16.1531 9.35501C16.1165 9.35603 16.0799 9.35705 16.0421 9.35811C15.8707 9.38578 15.7356 9.47664 15.625 9.60937C15.5547 9.82035 15.5524 10.0085 15.6494 10.21C15.807 10.3841 15.9571 10.4351 16.1874 10.4497C16.2652 10.4525 16.3431 10.4548 16.4209 10.4565C16.4608 10.4579 16.5008 10.4592 16.5419 10.4606C16.6399 10.4638 16.7379 10.4665 16.8359 10.4687C16.8679 11.7216 16.3215 13.0294 15.5859 14.0234C15.5701 14.0455 15.5542 14.0675 15.5379 14.0902C14.4772 15.5562 12.8933 16.4646 11.1328 16.7969C10.9511 16.8229 10.7696 16.8353 10.5859 16.8359C10.5851 16.8008 10.5851 16.8008 10.5842 16.765C10.5813 16.6576 10.5775 16.5502 10.5737 16.4429C10.5724 16.3876 10.5724 16.3876 10.5711 16.3312C10.5607 16.06 10.5379 15.8425 10.3296 15.6494C10.1686 15.5421 10.0356 15.5208 9.84375 15.5469C9.69156 15.6273 9.58049 15.7106 9.49219 15.8594C9.45625 15.9769 9.44599 16.0878 9.44077 16.2103C9.43913 16.2468 9.43749 16.2833 9.43581 16.3209C9.43427 16.3588 9.43273 16.3966 9.43115 16.4355C9.42947 16.474 9.42778 16.5124 9.42604 16.552C9.42191 16.6466 9.41792 16.7413 9.41406 16.8359C8.68737 16.8333 7.92702 16.6241 7.26562 16.3281C7.2355 16.3146 7.20538 16.3012 7.17434 16.2873C6.71178 16.0761 6.2936 15.827 5.88831 15.5202C5.83179 15.4774 5.77449 15.4357 5.71701 15.3943C4.3837 14.3949 3.46066 12.7736 3.20312 11.1328C3.18045 10.9379 3.16985 10.743 3.16406 10.5469C3.1863 10.5465 3.20853 10.5461 3.23144 10.5458C3.33352 10.5436 3.43554 10.5404 3.5376 10.5371C3.57257 10.5366 3.60754 10.536 3.64357 10.5354C3.87978 10.5268 4.02546 10.4899 4.21875 10.3516C4.32586 10.1995 4.35735 10.0638 4.34967 9.88113C4.32023 9.71725 4.228 9.61018 4.10278 9.50683C3.92601 9.42664 3.75408 9.43078 3.56201 9.42627C3.52377 9.42493 3.48552 9.4236 3.44612 9.42222C3.35211 9.41901 3.2581 9.41631 3.16406 9.41406C3.16666 8.68737 3.37585 7.92702 3.67188 7.26562C3.68536 7.2355 3.69884 7.20537 3.71273 7.17434C3.93626 6.68473 4.20488 6.24757 4.53125 5.82031C4.5596 5.78244 4.58795 5.74458 4.61716 5.70556C5.70594 4.31192 7.28744 3.46426 9.01672 3.1784C9.12474 3.1659 9.22738 3.16077 9.33594 3.16406ZM6.09863 6.19873C5.99906 6.35394 5.96413 6.4579 5.97656 6.64062C6.0874 6.91923 6.25735 7.10018 6.46832 7.30946C6.50213 7.34361 6.53594 7.37776 6.57077 7.41294C6.66298 7.50588 6.75552 7.59845 6.84827 7.69085C6.92588 7.76827 7.00325 7.84592 7.08062 7.92358C7.26322 8.10684 7.44621 8.28969 7.62947 8.4723C7.81808 8.66024 8.00604 8.84882 8.19368 9.03773C8.35529 9.20038 8.51727 9.36265 8.67957 9.52461C8.77629 9.62114 8.87287 9.7178 8.96909 9.81483C9.07642 9.923 9.18452 10.0304 9.29272 10.1377C9.32422 10.1696 9.35573 10.2016 9.38819 10.2345C9.56974 10.4131 9.71253 10.522 9.96094 10.5859C10.4063 10.5674 10.7304 10.0962 11.0239 9.803C11.0653 9.76173 11.1067 9.72046 11.1481 9.67919C11.2342 9.59327 11.3203 9.50728 11.4063 9.42124C11.5164 9.3111 11.6268 9.20124 11.7373 9.09144C11.8226 9.00656 11.9078 8.9215 11.9929 8.83639C12.0335 8.79579 12.0742 8.75525 12.115 8.71478C12.1718 8.65833 12.2284 8.60164 12.2849 8.54489C12.3171 8.51275 12.3493 8.48061 12.3825 8.4475C12.5287 8.28322 12.5569 8.15456 12.5513 7.9393C12.5249 7.75001 12.4157 7.64627 12.2778 7.52441C12.1151 7.4446 11.9749 7.42059 11.7969 7.46093C11.5663 7.59298 11.392 7.7777 11.2064 7.96569C11.1561 8.01608 11.1561 8.01608 11.1049 8.06749C10.9985 8.17437 10.8923 8.28151 10.7861 8.38867C10.7138 8.46137 10.6415 8.53405 10.5692 8.60672C10.3922 8.78448 10.2156 8.96246 10.0391 9.14062C9.92305 9.08847 9.84235 9.03152 9.75316 8.94118C9.71596 8.90381 9.71596 8.90381 9.67801 8.86568C9.63786 8.82473 9.63786 8.82473 9.59689 8.78296C9.56835 8.75419 9.53981 8.72541 9.51041 8.69576C9.44847 8.63326 9.38662 8.57068 9.32485 8.50802C9.22701 8.40882 9.1289 8.30991 9.03071 8.21107C8.75156 7.93001 8.47285 7.64852 8.19449 7.36668C8.02419 7.19428 7.85351 7.02227 7.68259 6.85049C7.61757 6.78499 7.55271 6.71934 7.488 6.65355C7.3974 6.56145 7.30633 6.46984 7.21515 6.37833C7.18862 6.35112 7.16208 6.3239 7.13475 6.29586C6.81357 5.97598 6.46179 5.85925 6.09863 6.19873Z" fill="#336B8A"/>
        <path d="M9.98844 -0.0120481C10.0262 -0.0119769 10.064 -0.0119057 10.103 -0.0118323C10.6628 -0.0100578 11.2076 0.00982063 11.7585 0.117346C11.811 0.126778 11.811 0.126778 11.8646 0.136401C13.7665 0.480541 15.5253 1.39629 16.9147 2.73453C16.9533 2.77157 16.9533 2.77157 16.9928 2.80936C17.3634 3.16656 17.7048 3.52974 18.0085 3.94547C18.042 3.99043 18.0755 4.0354 18.109 4.08036C18.3449 4.40027 18.5551 4.7324 18.7506 5.07828C18.7664 5.10591 18.7821 5.13353 18.7983 5.162C19.3067 6.0651 19.6479 7.04749 19.8566 8.06168C19.8624 8.08944 19.8681 8.11719 19.874 8.14579C19.9907 8.75682 20.0153 9.36761 20.0129 9.98795C20.0127 10.0446 20.0127 10.0446 20.0126 10.1025C20.0109 10.6623 19.991 11.2071 19.8835 11.758C19.8772 11.793 19.8709 11.8281 19.8644 11.8642C19.5203 13.766 18.6045 15.5248 17.2663 16.9142C17.2416 16.94 17.2169 16.9657 17.1914 16.9923C16.8342 17.3629 16.4711 17.7043 16.0553 18.008C16.0104 18.0415 15.9654 18.075 15.9204 18.1085C15.6005 18.3444 15.2684 18.5546 14.9225 18.7502C14.8949 18.7659 14.8673 18.7816 14.8388 18.7978C13.9357 19.3062 12.9533 19.6474 11.9391 19.8561C11.9114 19.8619 11.8836 19.8676 11.855 19.8736C11.244 19.9902 10.6332 20.0148 10.0129 20.0124C9.97507 20.0123 9.93728 20.0122 9.89834 20.0122C9.33846 20.0104 8.7937 19.9905 8.24284 19.883C8.2078 19.8767 8.17275 19.8704 8.13665 19.8639C6.23479 19.5198 4.47604 18.604 3.08658 17.2658C3.06083 17.2411 3.03507 17.2164 3.00854 17.191C2.6379 16.8338 2.2965 16.4706 1.99283 16.0548C1.95932 16.0099 1.9258 15.9649 1.89228 15.92C1.65644 15.6001 1.44617 15.2679 1.25065 14.922C1.23494 14.8944 1.21923 14.8668 1.20304 14.8383C0.694583 13.9352 0.353438 12.9528 0.14469 11.9386C0.136056 11.897 0.136056 11.897 0.127247 11.8545C0.010591 11.2435 -0.0139938 10.6327 -0.0115598 10.0124C-0.0114886 9.97458 -0.0114174 9.93679 -0.011344 9.89785C-0.00956951 9.33798 0.0103089 8.79322 0.117835 8.24235C0.127267 8.18979 0.127267 8.18979 0.136889 8.13616C0.481029 6.2343 1.39678 4.47555 2.73502 3.0861C2.75971 3.06034 2.78441 3.03458 2.80985 3.00805C3.16705 2.63741 3.53023 2.29601 3.94596 1.99235C3.99092 1.95883 4.03588 1.92531 4.08085 1.89179C4.40075 1.65595 4.73289 1.44568 5.07877 1.25016C5.1064 1.23445 5.13402 1.21874 5.16249 1.20255C6.06559 0.694094 7.04798 0.35295 8.06217 0.144202C8.1038 0.135568 8.1038 0.135568 8.14628 0.126759C8.7573 0.0101027 9.3681 -0.0144821 9.98844 -0.0120481ZM4.43392 4.24122C4.38027 4.29261 4.32618 4.34352 4.27204 4.39438C4.00404 4.65265 3.77669 4.93633 3.55533 5.23453C3.53967 5.25564 3.524 5.27674 3.50786 5.29849C2.84948 6.19557 2.40763 7.21228 2.15641 8.29362C2.1488 8.32618 2.14118 8.35874 2.13334 8.39229C2.01854 8.91551 1.97659 9.43891 1.97819 9.9733C1.97822 10.0018 1.97825 10.0303 1.97829 10.0597C1.98641 12.1316 2.81314 14.0756 4.24171 15.5669C4.29309 15.6205 4.34401 15.6746 4.39487 15.7288C4.65313 15.9968 4.93682 16.2241 5.23502 16.4455C5.25613 16.4611 5.27723 16.4768 5.29898 16.4929C5.63842 16.7421 5.99549 16.9531 6.36784 17.1486C6.39339 17.162 6.41894 17.1755 6.44527 17.1893C7.53501 17.7531 8.75063 18.0263 9.97379 18.0226C10.0023 18.0226 10.0308 18.0226 10.0601 18.0225C12.132 18.0144 14.0761 17.1877 15.5674 15.7591C15.621 15.7077 15.6751 15.6568 15.7293 15.6059C15.9973 15.3477 16.2246 15.064 16.446 14.7658C16.4695 14.7341 16.4695 14.7341 16.4934 14.7018C16.7426 14.3624 16.9536 14.0053 17.1491 13.633C17.1625 13.6074 17.176 13.5819 17.1898 13.5555C17.7536 12.4658 18.0268 11.2502 18.0231 10.027C18.0231 9.99852 18.023 9.97002 18.023 9.94066C18.0149 7.86876 17.1882 5.92475 15.7596 4.43343C15.7082 4.37978 15.6573 4.32569 15.6064 4.27155C15.3482 4.00355 15.0645 3.7762 14.7663 3.55485C14.7346 3.53135 14.7346 3.53135 14.7023 3.50737C14.3629 3.25825 14.0058 3.04725 13.6335 2.85172C13.6079 2.83828 13.5823 2.82483 13.556 2.81098C12.4663 2.24721 11.2507 1.97405 10.0275 1.9777C9.99901 1.97773 9.97051 1.97777 9.94115 1.9778C7.86925 1.98592 5.92523 2.81265 4.43392 4.24122Z" fill="#336B8A"/>
    </g>
    <defs>
        <clipPath id="clip0_4_7433">
            <rect width="20" height="20" fill="white"/>
        </clipPath>
    </defs>
</svg>
