<svg width="22" height="22" viewBox="0 0 22 22" fill="none" xmlns="http://www.w3.org/2000/svg">
    <path d="M3.14184 8.24429C3.19843 8.2441 3.25502 8.24391 3.31332 8.24371C3.37673 8.24372 3.44013 8.24372 3.50354 8.24374C3.57042 8.24359 3.63731 8.24343 3.7042 8.24326C3.88869 8.24283 4.07318 8.24267 4.25768 8.24255C4.45639 8.24239 4.6551 8.24197 4.85381 8.2416C5.33404 8.24075 5.81426 8.24032 6.29449 8.23994C6.52047 8.23975 6.74644 8.23952 6.97242 8.23929C7.72334 8.23856 8.47426 8.23794 9.22518 8.23763C9.42014 8.23754 9.61509 8.23746 9.81005 8.23738C9.85851 8.23736 9.90697 8.23734 9.9569 8.23731C10.7422 8.23696 11.5275 8.23587 12.3129 8.23447C13.1186 8.23305 13.9243 8.23228 14.7301 8.23214C15.1827 8.23205 15.6353 8.23167 16.0879 8.23057C16.4733 8.22964 16.8587 8.2293 17.2441 8.22971C17.4408 8.22991 17.6375 8.22982 17.8342 8.22899C18.0142 8.22824 18.1942 8.22828 18.3743 8.22895C18.4394 8.22905 18.5046 8.22886 18.5698 8.22835C18.6583 8.2277 18.7468 8.22812 18.8354 8.22879C18.9092 8.22873 18.9092 8.22873 18.9844 8.22866C19.1996 8.26249 19.3324 8.37232 19.4777 8.52936C19.5818 8.68362 19.5985 8.81292 19.5989 8.99651C19.5991 9.0339 19.5993 9.07129 19.5995 9.10981C19.5994 9.15055 19.5994 9.19129 19.5994 9.23326C19.5996 9.29811 19.5996 9.29811 19.5998 9.36427C19.6003 9.50827 19.6003 9.65226 19.6004 9.79626C19.6005 9.89801 19.6007 9.99976 19.6008 10.1015C19.6011 10.3164 19.6012 10.5312 19.6011 10.7461C19.6011 10.9621 19.6014 11.1782 19.602 11.3943C19.605 12.4983 19.6013 13.6009 19.5551 14.7041C19.5534 14.745 19.5517 14.7859 19.55 14.828C19.5311 15.2767 19.5031 15.7243 19.4656 16.1719C19.4623 16.2125 19.459 16.2532 19.4556 16.295C19.3858 17.0861 19.0933 17.7576 18.5619 18.3477C18.5365 18.3771 18.5112 18.4064 18.485 18.4367C17.7228 19.2638 16.652 19.4653 15.581 19.5132C15.519 19.5164 15.4571 19.5196 15.3952 19.5228C15.2301 19.5312 15.0649 19.5386 14.8998 19.5457C14.8201 19.5491 14.7404 19.5526 14.6608 19.5562C13.9345 19.5885 13.2095 19.6013 12.4825 19.6025C12.3718 19.6028 12.2611 19.6031 12.1504 19.6034C11.8289 19.6042 11.5074 19.6045 11.1859 19.6045C11.0958 19.6046 11.0057 19.6046 10.9156 19.6046C8.0562 19.606 8.0562 19.606 6.71328 19.5374C6.66184 19.5349 6.6104 19.5324 6.5574 19.5298C5.39847 19.4702 4.37975 19.2863 3.52285 18.4337C3.47383 18.3869 3.47383 18.3869 3.42382 18.3392C2.84228 17.7465 2.59988 16.981 2.53334 16.1708C2.52789 16.1058 2.52789 16.1058 2.52232 16.0395C2.48669 15.6021 2.46241 15.1646 2.4441 14.7263C2.44231 14.6842 2.44051 14.6421 2.43867 14.5988C2.39473 13.5426 2.39103 12.4862 2.3921 11.4292C2.39236 11.1565 2.39161 10.8838 2.39063 10.6111C2.38999 10.3982 2.38995 10.1852 2.39009 9.97218C2.39007 9.87145 2.38984 9.77071 2.38941 9.66998C2.38888 9.53082 2.38917 9.39169 2.38967 9.25252C2.38934 9.21178 2.38901 9.17103 2.38867 9.12905C2.39078 8.86386 2.41809 8.64007 2.60054 8.43301C2.80208 8.28353 2.89175 8.24468 3.14184 8.24429ZM6.75894 10.7025C6.5696 10.9935 6.54226 11.2582 6.57363 11.6016C6.66159 11.8942 6.85258 12.1046 7.11343 12.2596C7.36724 12.3771 7.65077 12.378 7.91859 12.3052C8.18245 12.1905 8.38878 11.9704 8.51461 11.7137C8.59805 11.4509 8.59574 11.1467 8.47769 10.8953C8.33567 10.6555 8.13234 10.4431 7.8627 10.3555C7.42807 10.2937 7.04736 10.3479 6.75894 10.7025ZM10.1964 10.7025C10.0071 10.9935 9.97976 11.2582 10.0111 11.6016C10.0991 11.8942 10.2901 12.1046 10.5509 12.2596C10.8047 12.3771 11.0883 12.378 11.3561 12.3052C11.6199 12.1905 11.8263 11.9704 11.9521 11.7137C12.0355 11.4509 12.0332 11.1467 11.9152 10.8953C11.7732 10.6555 11.5698 10.4431 11.3002 10.3555C10.8656 10.2937 10.4849 10.3479 10.1964 10.7025ZM13.6339 10.7025C13.4446 10.9935 13.4173 11.2582 13.4486 11.6016C13.5366 11.8942 13.7276 12.1046 13.9884 12.2596C14.2422 12.3771 14.5258 12.378 14.7936 12.3052C15.0574 12.1905 15.2638 11.9704 15.3896 11.7137C15.473 11.4509 15.4707 11.1467 15.3527 10.8953C15.2107 10.6555 15.0073 10.4431 14.7377 10.3555C14.3031 10.2937 13.9224 10.3479 13.6339 10.7025ZM6.75894 14.14C6.5696 14.431 6.54226 14.6957 6.57363 15.0391C6.66159 15.3317 6.85258 15.5421 7.11343 15.6971C7.36724 15.8146 7.65077 15.8155 7.91859 15.7427C8.18245 15.628 8.38878 15.4079 8.51461 15.1512C8.59805 14.8884 8.59574 14.5842 8.47769 14.3328C8.33567 14.093 8.13234 13.8806 7.8627 13.793C7.42807 13.7312 7.04736 13.7854 6.75894 14.14ZM10.1964 14.14C10.0071 14.431 9.97976 14.6957 10.0111 15.0391C10.0991 15.3317 10.2901 15.5421 10.5509 15.6971C10.8047 15.8146 11.0883 15.8155 11.3561 15.7427C11.6199 15.628 11.8263 15.4079 11.9521 15.1512C12.0355 14.8884 12.0332 14.5842 11.9152 14.3328C11.7732 14.093 11.5698 13.8806 11.3002 13.793C10.8656 13.7312 10.4849 13.7854 10.1964 14.14ZM13.6339 14.14C13.4446 14.431 13.4173 14.6957 13.4486 15.0391C13.5366 15.3317 13.7276 15.5421 13.9884 15.6971C14.2422 15.8146 14.5258 15.8155 14.7936 15.7427C15.0574 15.628 15.2638 15.4079 15.3896 15.1512C15.473 14.8884 15.4707 14.5842 15.3527 14.3328C15.2107 14.093 15.0073 13.8806 14.7377 13.793C14.3031 13.7312 13.9224 13.7854 13.6339 14.14Z" fill="white"/>
    <path d="M7.82058 1.37515C8.05485 1.48392 8.09884 1.5777 8.25026 1.80484C8.25026 2.11679 8.25026 2.42874 8.25026 2.75015C10.0653 2.75015 11.8803 2.75015 13.7503 2.75015C13.7503 2.4382 13.7503 2.12624 13.7503 1.80484C13.9725 1.47146 13.9725 1.47146 14.1799 1.37515C14.4206 1.34276 14.624 1.34193 14.846 1.44497C14.9992 1.5905 15.1122 1.70105 15.139 1.91434C15.1422 2.04117 15.1403 2.1668 15.136 2.29361C15.1352 2.33753 15.1345 2.38145 15.1337 2.42671C15.1316 2.53456 15.1288 2.64234 15.1253 2.75015C15.1646 2.74925 15.204 2.74835 15.2445 2.74742C15.3941 2.74445 15.5437 2.74232 15.6933 2.74071C15.7574 2.73986 15.8215 2.73869 15.8855 2.73718C16.4831 2.72347 17.0556 2.79546 17.5906 3.08316C17.619 3.09792 17.6473 3.11269 17.6765 3.1279C17.9244 3.26104 18.1405 3.41917 18.3479 3.60952C18.3804 3.63805 18.4128 3.66658 18.4463 3.69597C19.0728 4.27836 19.4464 5.12292 19.4794 5.97444C19.485 6.25824 19.4856 6.48056 19.2932 6.70327C19.1078 6.84819 18.9881 6.89664 18.7534 6.89678C18.6971 6.89723 18.6408 6.89767 18.5827 6.89814C18.5205 6.89776 18.4583 6.89738 18.3961 6.89697C18.3297 6.89717 18.2634 6.89744 18.1971 6.89779C18.0149 6.8985 17.8328 6.89815 17.6506 6.89762C17.4542 6.89723 17.2577 6.89783 17.0612 6.8983C16.6763 6.89907 16.2915 6.8989 15.9066 6.8984C15.5939 6.89801 15.2811 6.89796 14.9684 6.89815C14.9016 6.89819 14.9016 6.89819 14.8335 6.89823C14.7432 6.89828 14.6528 6.89834 14.5624 6.8984C13.7146 6.89889 12.8669 6.89832 12.0192 6.8974C11.2916 6.89663 10.564 6.89676 9.83637 6.89756C8.99169 6.89848 8.14701 6.89884 7.30232 6.89831C7.21227 6.89826 7.12222 6.8982 7.03217 6.89815C6.96571 6.89811 6.96571 6.89811 6.89791 6.89807C6.58548 6.89792 6.27306 6.89817 5.96064 6.89857C5.57997 6.89906 5.1993 6.89893 4.81863 6.89801C4.62435 6.89756 4.43009 6.89738 4.23582 6.89795C4.05802 6.89846 3.88025 6.89818 3.70245 6.89727C3.63809 6.89707 3.57372 6.89717 3.50936 6.89759C3.42194 6.89811 3.33451 6.89747 3.24709 6.89678C3.19851 6.89675 3.14993 6.89672 3.09987 6.89669C2.88047 6.86162 2.74784 6.75022 2.60524 6.58511C2.37303 6.12751 2.56162 5.48704 2.70729 5.02749C2.98597 4.18431 3.60192 3.50536 4.38308 3.0939C4.98463 2.80197 5.534 2.73727 6.19313 2.74478C6.25949 2.74521 6.32584 2.7456 6.3922 2.74595C6.55323 2.74689 6.71424 2.74837 6.87526 2.75015C6.87391 2.70922 6.87391 2.70922 6.87254 2.66746C6.86894 2.54285 6.86672 2.41825 6.86452 2.29361C6.86308 2.25068 6.86164 2.20775 6.86016 2.16352C6.85665 1.89884 6.8704 1.74828 7.04714 1.54702C7.27364 1.33185 7.52444 1.33528 7.82058 1.37515Z" fill="white"/>
</svg>
