<svg width="81" height="51" viewBox="0 0 81 51" fill="none" xmlns="http://www.w3.org/2000/svg">
    <path d="M6.62814 0.0401217C6.73599 0.0395738 6.84385 0.039026 6.95497 0.0384616C7.3153 0.0370113 7.67559 0.0377742 8.03593 0.0385347C8.29731 0.0379506 8.5587 0.0372316 8.82009 0.0363893C9.53759 0.0344786 10.2551 0.034519 10.9726 0.0348875C11.7467 0.0349513 12.5208 0.0332264 13.295 0.0317445C14.8114 0.0291492 16.3278 0.0282899 17.8442 0.0281157C19.0769 0.0279671 20.3096 0.0273249 21.5423 0.0263342C25.0376 0.0235823 28.5329 0.0221406 32.0282 0.022375C32.3108 0.0223937 32.3108 0.0223937 32.5992 0.0224128C32.7878 0.0224256 32.9765 0.0224384 33.1708 0.0224515C36.2281 0.0225785 39.2853 0.0195882 42.3425 0.0151821C45.4821 0.0106931 48.6216 0.00853517 51.7611 0.00880514C53.5236 0.00890887 55.286 0.00805083 57.0485 0.00468699C58.5491 0.00184125 60.0497 0.00116225 61.5503 0.00328369C62.3157 0.00430387 63.0811 0.00432254 63.8465 0.0016108C64.5478 -0.000848253 65.249 -0.000398531 65.9503 0.00232459C66.2034 0.00280401 66.4565 0.0022377 66.7096 0.000493318C68.9213 -0.0137361 70.7519 0.400851 72.4077 1.96081C73.9932 3.64119 74.4693 5.43393 74.4444 7.69324C74.4437 7.92435 74.4437 7.92435 74.4431 8.16013C74.4413 8.64722 74.4374 9.13426 74.4334 9.62134C74.4318 9.95367 74.4304 10.286 74.4291 10.6183C74.426 11.4286 74.4199 12.2388 74.4139 13.0491C73.0733 13.1006 71.7326 13.1522 70.3514 13.2053C70.6124 13.5276 70.8735 13.8499 71.1424 14.1819C72.0125 15.2638 72.8476 16.3696 73.6772 17.4827C74.3364 18.366 75.005 19.241 75.6834 20.1096C75.7725 20.2239 75.8616 20.3381 75.9534 20.4559C76.3138 20.9179 76.6743 21.3799 77.0352 21.8416C80.3845 26.1335 80.3845 26.1335 80.0389 29.1428C79.6635 30.7099 78.7353 31.9468 77.4333 32.88C76.7179 33.306 76.1518 33.5314 75.3214 33.6063C75.1807 33.6193 75.0401 33.6323 74.8951 33.6457C74.7879 33.6551 74.6806 33.6644 74.5701 33.6741C74.5715 33.8187 74.5729 33.9633 74.5743 34.1123C74.5869 35.4821 74.5964 36.852 74.6025 38.2218C74.6058 38.9259 74.6102 39.63 74.6173 40.3341C74.6241 41.0149 74.6278 41.6957 74.6294 42.3765C74.6306 42.6349 74.6328 42.8933 74.6362 43.1516C74.6637 45.33 74.4437 47.1924 72.8514 48.8303C71.5193 50.0682 70.055 50.4905 68.2664 50.4758C68.0204 50.4767 68.0204 50.4767 67.7694 50.4776C67.4248 50.4781 67.0803 50.4769 66.7357 50.4743C66.2121 50.471 65.6888 50.4743 65.1652 50.4783C64.8285 50.4779 64.4918 50.4771 64.1551 50.4758C64.0006 50.4771 63.8461 50.4784 63.6869 50.4797C62.058 50.458 60.7911 49.8967 59.5701 48.8303C59.4799 48.7238 59.3897 48.6172 59.2968 48.5074C58.8491 48.1228 58.6234 48.1273 58.0389 48.1277C57.8527 48.1263 57.6665 48.1249 57.4746 48.1235C57.2698 48.1251 57.0649 48.1267 56.8539 48.1284C56.6343 48.128 56.4147 48.1272 56.195 48.1262C55.5908 48.1243 54.9866 48.1262 54.3823 48.1287C53.7309 48.1308 53.0794 48.1292 52.428 48.1281C51.2986 48.1266 50.1693 48.1273 49.04 48.1294C47.4051 48.1324 45.7702 48.1314 44.1353 48.1293C41.4802 48.1259 38.8251 48.1249 36.17 48.1257C35.9316 48.1258 35.9316 48.1258 35.6883 48.1259C34.3992 48.1263 33.11 48.1269 31.8208 48.1274C30.6958 48.1279 29.5708 48.1283 28.4457 48.1286C28.2873 48.1287 28.1289 48.1287 27.9657 48.1288C25.3222 48.1296 22.6786 48.1279 20.0351 48.1245C18.405 48.1225 16.775 48.1227 15.145 48.1258C14.027 48.1278 12.909 48.1275 11.7911 48.1256C11.1465 48.1245 10.502 48.1245 9.85748 48.1273C9.2664 48.1297 8.6754 48.1293 8.08432 48.1267C7.77134 48.126 7.45835 48.1284 7.14537 48.1309C5.01071 48.1151 3.50038 47.5281 1.95294 46.0862C0.820131 44.859 -0.00168926 43.4835 0.00130177 41.7696C0.000872183 41.579 0.000442602 41.3884 0 41.192C0.00110575 40.9829 0.00224162 40.7738 0.00340462 40.5647C0.00349283 40.3429 0.00344315 40.1211 0.00326633 39.8993C0.00317686 39.2989 0.00501103 38.6985 0.00719547 38.0981C0.00915203 37.47 0.00933304 36.8419 0.00970364 36.2138C0.010674 35.0252 0.0132371 33.8366 0.0163752 32.6479C0.0198709 31.2944 0.0215872 29.9409 0.0231552 28.5873C0.0264196 25.8037 0.0319145 23.0202 0.0388813 20.2366C0.158125 20.2372 0.277369 20.2379 0.400226 20.2386C7.47082 20.2785 14.5414 20.3045 21.6121 20.3125C22.4614 20.3135 23.3108 20.3146 24.1602 20.3157C24.3293 20.316 24.4984 20.3162 24.6726 20.3164C27.4089 20.3204 30.1451 20.3338 32.8814 20.3506C35.6901 20.3677 38.4986 20.3746 41.3073 20.3723C43.0399 20.3711 44.7721 20.3778 46.5046 20.3946C47.6934 20.4054 48.882 20.4063 50.0708 20.3996C50.7564 20.396 51.4413 20.3967 52.1269 20.409C55.012 20.5912 55.012 20.5912 57.5219 19.4954C57.9881 18.9521 58.3322 18.3773 58.6376 17.7316C58.8377 17.3249 59.1003 16.9874 59.3876 16.6385C59.621 16.3324 59.8544 16.0262 60.0874 15.7197C60.7355 14.8702 61.4021 14.0404 62.0701 13.2053C41.5998 13.1538 21.1295 13.1022 0.0388813 13.0491C0.0388813 4.0972 0.0388813 4.0972 1.91388 1.95532C3.21858 0.736588 4.84016 0.0421785 6.62814 0.0401217ZM63.701 18.2444C63.5383 18.4667 63.3753 18.6889 63.2121 18.9109C63.1279 19.0258 63.0437 19.1407 62.9569 19.2591C62.5155 19.8535 62.0581 20.4352 61.6014 21.0178C60.6753 22.203 59.7681 23.4009 58.8695 24.607C58.6155 24.947 58.3602 25.2859 58.1047 25.6248C58.0182 25.7395 57.9317 25.8543 57.8426 25.9726C57.6761 26.1935 57.5094 26.4143 57.3426 26.635C56.6435 27.5542 56.6435 27.5542 56.6014 28.6741C56.8847 29.1318 57.2065 29.5235 57.6951 29.7678C58.0241 29.7812 58.3535 29.7846 58.6827 29.7831C58.9773 29.7823 58.9773 29.7823 59.2778 29.7816C59.4838 29.7802 59.6899 29.7789 59.9022 29.7776C60.1115 29.7768 60.3209 29.7761 60.5302 29.7754C61.0435 29.7736 61.5568 29.771 62.0701 29.7678C62.0691 29.9599 62.0681 30.1519 62.067 30.3498C62.0575 32.1592 62.0505 33.9686 62.0459 35.778C62.0434 36.7082 62.0401 37.6384 62.0348 38.5687C62.0297 39.4663 62.0269 40.3639 62.0257 41.2615C62.0248 41.6041 62.0231 41.9467 62.0206 42.2892C62.0172 42.7688 62.0167 43.2483 62.0169 43.7279C62.0152 43.8697 62.0136 44.0116 62.0118 44.1577C62.0163 45.0757 62.1589 45.6054 62.7956 46.2964C63.3533 46.5843 63.9113 46.5597 64.525 46.5598C64.7232 46.5616 64.7232 46.5616 64.9254 46.5634C65.2046 46.5651 65.4839 46.5655 65.7631 46.5648C66.1888 46.5647 66.614 46.5712 67.0396 46.5781C67.3114 46.5789 67.5832 46.5794 67.855 46.5793C68.0448 46.5832 68.0448 46.5832 68.2384 46.5871C68.8859 46.5793 69.2921 46.524 69.8043 46.1097C70.2791 45.6184 70.371 45.4197 70.3702 44.7621C70.3704 44.6302 70.3706 44.4983 70.3708 44.3624C70.3703 44.2174 70.3697 44.0724 70.3691 43.923C70.3691 43.7706 70.3692 43.6181 70.3692 43.4611C70.3691 42.9555 70.3679 42.4499 70.3666 41.9443C70.3664 41.5945 70.3661 41.2446 70.366 40.8947C70.3654 39.9725 70.3638 39.0504 70.3621 38.1282C70.3605 37.1877 70.3598 36.2472 70.359 35.3068C70.3573 33.4604 70.3547 31.6141 70.3514 29.7678C70.479 29.7719 70.6066 29.776 70.7381 29.7802C71.3188 29.7965 71.8995 29.8066 72.4803 29.8166C72.6811 29.8232 72.8819 29.8297 73.0888 29.8365C74.2853 29.8913 74.2853 29.8913 75.3258 29.3937C75.7007 28.9423 75.8044 28.7743 75.8946 28.1986C75.7873 27.3074 75.3359 26.8131 74.785 26.1252C74.6261 25.9205 74.6261 25.9205 74.464 25.7115C74.1371 25.291 73.8068 24.8732 73.4764 24.4553C73.2856 24.2102 73.0952 23.9649 72.9051 23.7192C72.5453 23.2545 72.1843 22.7907 71.8223 22.3276C71.2885 21.6438 70.7606 20.9555 70.2342 20.2659C70.1507 20.1566 70.0672 20.0474 69.9811 19.9348C69.59 19.4228 69.1996 18.9102 68.8109 18.3964C68.6733 18.2155 68.5358 18.0346 68.3983 17.8538C68.2806 17.6983 68.163 17.5428 68.0418 17.3826C67.3381 16.4683 67.3381 16.4683 66.3084 16.0666C65.1095 16.1463 64.345 17.343 63.701 18.2444ZM10.1951 35.3928C9.98674 36.018 10.004 36.5936 9.99982 37.2483C9.9966 37.3738 9.99337 37.4993 9.99005 37.6285C9.98519 38.3666 10.0247 38.8575 10.5076 39.4553C11.0303 39.7167 11.619 39.6374 12.194 39.6392C12.3363 39.6403 12.4786 39.6413 12.6252 39.6423C13.0973 39.6454 13.5694 39.6472 14.0416 39.6488C14.283 39.6498 14.283 39.6498 14.5294 39.6507C15.3811 39.654 16.2328 39.6562 17.0846 39.6577C17.9655 39.6594 18.8465 39.6648 19.7275 39.671C20.4038 39.6751 21.0802 39.6764 21.7566 39.677C22.0814 39.6777 22.4062 39.6795 22.731 39.6824C23.1852 39.6862 23.6392 39.6861 24.0934 39.685C24.228 39.687 24.3626 39.689 24.5013 39.6911C25.2564 39.6859 25.2564 39.6859 25.9036 39.3182C26.1839 38.9123 26.2112 38.6807 26.2101 38.1901C26.2103 37.9636 26.2103 37.9636 26.2105 37.7326C26.2073 37.576 26.2042 37.4194 26.201 37.2581C26.2021 37.1008 26.2032 36.9436 26.2044 36.7817C26.2418 35.9881 26.2418 35.9881 25.9332 35.2959C25.6067 35.0346 25.4549 35.0217 25.0412 35.0218C24.915 35.0208 24.7889 35.0197 24.6589 35.0185C24.521 35.0197 24.3832 35.0209 24.2412 35.0221C24.0955 35.0216 23.9499 35.021 23.7999 35.0204C23.3177 35.0191 22.8355 35.0213 22.3533 35.0236C22.0188 35.0236 21.6843 35.0236 21.3498 35.0233C20.6484 35.0233 19.947 35.025 19.2456 35.0278C18.3455 35.0313 17.4455 35.0314 16.5454 35.0304C15.8545 35.0298 15.1637 35.0309 14.4728 35.0324C14.1409 35.033 13.809 35.0332 13.4771 35.033C13.0136 35.0329 12.5501 35.0349 12.0866 35.0374C11.8799 35.0368 11.8799 35.0368 11.6689 35.0362C10.8856 35.0412 10.8856 35.0412 10.1951 35.3928Z" fill="#FFB020"/>
</svg>
