<svg width="18" height="18" viewBox="0 0 18 18" fill="none" xmlns="http://www.w3.org/2000/svg">
    <g clip-path="url(#clip0_4_6047)">
        <path d="M13.1469 4.92825C13.3252 5.06417 13.437 5.23471 13.5005 5.44914C13.5474 5.8385 13.4893 6.0923 13.2558 6.40015C13.216 6.45026 13.176 6.5002 13.1358 6.54997C13.0914 6.60595 13.0471 6.66198 13.0028 6.71806C12.9803 6.74662 12.9578 6.77517 12.9346 6.80458C12.829 6.94035 12.7274 7.07901 12.626 7.21794C12.4515 7.45664 12.274 7.69287 12.0943 7.92766C11.9161 8.16037 11.7401 8.39436 11.5669 8.63078C11.3705 8.89894 11.1699 9.16363 10.9679 9.42757C10.8139 9.62919 10.6622 9.83234 10.5122 10.037C10.3158 10.3052 10.1152 10.5699 9.91321 10.8338C9.75917 11.0354 9.60748 11.2386 9.45755 11.4433C9.26135 11.7112 9.061 11.9756 8.85914 12.2392C8.6988 12.449 8.5413 12.6607 8.38528 12.8737C7.75412 13.7332 7.75412 13.7332 7.38333 13.8163C7.11828 13.8485 6.90727 13.8169 6.68021 13.6757C6.37022 13.4236 6.09154 13.1297 5.8083 12.8486C5.78402 12.8245 5.75974 12.8004 5.73472 12.7756C5.60653 12.6483 5.47846 12.5209 5.35047 12.3934C5.24519 12.2886 5.13966 12.1841 5.0339 12.0797C4.90522 11.9528 4.77698 11.8254 4.64904 11.6977C4.60057 11.6495 4.55195 11.6014 4.50317 11.5535C3.89118 10.9515 3.89118 10.9515 3.86523 10.5196C3.87378 10.2489 3.94923 10.0426 4.14415 9.84889C4.39637 9.61805 4.59392 9.5768 4.93475 9.58728C5.5161 9.63396 6.0579 10.4125 6.4429 10.7995C6.50364 10.8604 6.56438 10.9213 6.62514 10.9822C6.77249 11.1299 6.91975 11.2778 7.06693 11.4257C7.18502 11.3863 7.20084 11.3647 7.27058 11.267C7.29903 11.2276 7.29903 11.2276 7.32806 11.1875C7.35868 11.1444 7.35868 11.1444 7.38992 11.1005C7.43431 11.0391 7.47877 10.9778 7.52327 10.9165C7.54644 10.8845 7.56962 10.8525 7.5935 10.8196C7.70864 10.6625 7.82724 10.508 7.94583 10.3534C8.12398 10.1207 8.30001 9.88674 8.47318 9.65032C8.66958 9.38216 8.87019 9.11747 9.0722 8.85353C9.22624 8.65191 9.37794 8.44876 9.52786 8.24407C9.72427 7.97591 9.92487 7.71122 10.1269 7.44728C10.2809 7.24566 10.4326 7.04251 10.5826 6.83782C10.7787 6.57003 10.9788 6.30551 11.1809 6.04219C11.2984 5.88874 11.4144 5.73451 11.5275 5.57782C11.5493 5.54768 11.5712 5.51755 11.5936 5.4865C11.6345 5.42988 11.675 5.37308 11.7153 5.31607C12.0663 4.82979 12.5877 4.58732 13.1469 4.92825Z" fill="white"/>
        <path d="M1.65261 4.35927C1.79532 4.42692 1.92887 4.50761 2.0635 4.58998C2.10076 4.61229 2.13802 4.6346 2.17641 4.65759C2.28334 4.72177 2.38986 4.78657 2.49636 4.85146C2.54733 4.88199 2.59832 4.91249 2.64935 4.94292C3.04382 5.18015 3.04382 5.18015 3.08962 5.35683C3.09458 5.50045 3.08128 5.55186 2.98855 5.66005C2.84901 5.74302 2.75663 5.73111 2.60183 5.69521C2.49366 5.64348 2.49366 5.64348 2.3795 5.57738C2.35886 5.56553 2.33823 5.55367 2.31697 5.54146C2.25134 5.50365 2.18599 5.4654 2.12063 5.42714C2.07746 5.40226 2.03427 5.3774 1.99106 5.35257C1.26032 4.93099 1.26032 4.93099 1.16042 4.78114C1.14638 4.67229 1.13779 4.60399 1.16042 4.49989C1.30839 4.31863 1.42749 4.29347 1.65261 4.35927Z" fill="white"/>
        <path d="M12.7617 14.9412C12.9495 15.13 13.0686 15.3682 13.199 15.5982C13.2216 15.6376 13.2442 15.677 13.2674 15.7176C13.3337 15.8335 13.3993 15.9498 13.4648 16.0662C13.4858 16.1027 13.5067 16.1392 13.5283 16.1768C13.5572 16.228 13.5572 16.228 13.5867 16.2802C13.6038 16.3102 13.6209 16.3403 13.6386 16.3713C13.6945 16.4941 13.6866 16.574 13.6406 16.699C13.5857 16.7847 13.5857 16.7847 13.5 16.8396C13.3095 16.8669 13.3095 16.8669 13.2188 16.8396C13.0248 16.6884 12.9207 16.4682 12.8013 16.2574C12.7806 16.2214 12.76 16.1855 12.7388 16.1485C12.6971 16.0759 12.6556 16.0032 12.6143 15.9304C12.5709 15.8551 12.5266 15.7804 12.4815 15.7061C12.4593 15.6695 12.4371 15.6328 12.4143 15.595C12.3941 15.5623 12.3739 15.5295 12.3531 15.4957C12.3005 15.3898 12.2791 15.305 12.2695 15.1873C12.3103 15.0756 12.3441 15.0017 12.4365 14.9258C12.5589 14.8952 12.6403 14.9071 12.7617 14.9412Z" fill="white"/>
        <path d="M5.55472 14.9416C5.65514 15.0148 5.68936 15.0602 5.72212 15.1804C5.7321 15.3146 5.70632 15.3727 5.64275 15.4902C5.62313 15.5269 5.60352 15.5635 5.5833 15.6013C5.56227 15.6388 5.54124 15.6764 5.51957 15.715C5.49948 15.751 5.4794 15.787 5.45871 15.8241C5.39719 15.9326 5.33446 16.0403 5.27127 16.1479C5.25022 16.1841 5.22917 16.2204 5.20749 16.2578C4.90238 16.7794 4.90238 16.7794 4.78128 16.84C4.67538 16.8521 4.60227 16.8601 4.50003 16.84C4.36896 16.733 4.36896 16.733 4.32425 16.6291C4.3218 16.3557 4.4506 16.165 4.59012 15.9369C4.61243 15.8997 4.63474 15.8624 4.65773 15.824C4.72191 15.7171 4.78671 15.6106 4.8516 15.5041C4.88213 15.4531 4.91263 15.4021 4.94306 15.3511C5.23961 14.858 5.23961 14.858 5.55472 14.9416Z" fill="white"/>
        <path d="M2.91885 12.3047C3.02094 12.3792 3.05393 12.428 3.09243 12.5486C3.09524 12.6861 3.07853 12.7269 2.98916 12.8321C2.74506 13.0154 2.47348 13.1618 2.20913 13.3133C2.16832 13.3368 2.12751 13.3604 2.0867 13.3839C1.57814 13.6763 1.57814 13.6763 1.42031 13.6736C1.28699 13.6366 1.23569 13.6165 1.16103 13.5C1.13382 13.3096 1.13382 13.3096 1.16103 13.2188C1.31229 13.0248 1.5325 12.9208 1.74331 12.8013C1.77922 12.7807 1.81514 12.7601 1.85214 12.7388C1.92466 12.6972 1.99724 12.6557 2.0699 12.6143C2.21917 12.5287 2.36724 12.441 2.51523 12.3532C2.66518 12.2699 2.75364 12.2609 2.91885 12.3047Z" fill="white"/>
        <path d="M15.6212 12.4227C15.6418 12.4346 15.6624 12.4464 15.6837 12.4586C15.7493 12.4964 15.8147 12.5347 15.88 12.5729C15.9232 12.5978 15.9664 12.6227 16.0096 12.6475C16.7403 13.0691 16.7403 13.0691 16.8402 13.2189C16.8543 13.3278 16.8629 13.3961 16.8402 13.5002C16.7322 13.6326 16.7322 13.6326 16.6293 13.676C16.4051 13.6694 16.2626 13.6077 16.0756 13.4892C16.0237 13.4574 15.9718 13.4257 15.9199 13.3939C15.8926 13.377 15.8654 13.3601 15.8374 13.3427C15.7452 13.286 15.6522 13.2308 15.559 13.1758C15.4953 13.1382 15.4317 13.1006 15.3681 13.0629C15.3378 13.0451 15.3075 13.0272 15.2762 13.0088C15.2479 12.9919 15.2196 12.975 15.1904 12.9576C15.1653 12.9427 15.1402 12.9278 15.1143 12.9125C14.9939 12.8314 14.9483 12.7868 14.911 12.6432C14.9061 12.4996 14.9194 12.4482 15.0121 12.34C15.2299 12.2105 15.4187 12.3055 15.6212 12.4227Z" fill="white"/>
        <path d="M16.699 4.35948C16.7847 4.41442 16.7847 4.41442 16.8396 4.50011C16.8669 4.6906 16.8669 4.6906 16.8396 4.78136C16.6884 4.97532 16.4682 5.07938 16.2574 5.19884C16.2214 5.21946 16.1855 5.24008 16.1485 5.26133C16.0759 5.30302 16.0032 5.34452 15.9304 5.38585C15.8551 5.42918 15.7804 5.47348 15.7061 5.51858C15.6695 5.54077 15.6328 5.56297 15.595 5.58583C15.5623 5.60601 15.5295 5.62618 15.4957 5.64696C15.3898 5.6996 15.305 5.72105 15.1873 5.73058C15.0756 5.68976 15.0017 5.65598 14.9258 5.56359C14.8952 5.4412 14.9071 5.35978 14.9412 5.23839C15.13 5.05061 15.3682 4.93153 15.5982 4.80114C15.6573 4.76725 15.6573 4.76725 15.7176 4.73268C15.8335 4.6664 15.9498 4.60079 16.0662 4.53527C16.1027 4.51433 16.1392 4.49339 16.1768 4.47182C16.228 4.44293 16.228 4.44293 16.2802 4.41346C16.3102 4.39633 16.3403 4.3792 16.3713 4.36155C16.4941 4.30557 16.574 4.31355 16.699 4.35948Z" fill="white"/>
        <path d="M13.4301 1.14455C13.5322 1.16676 13.5909 1.22219 13.6492 1.30717C13.6998 1.42483 13.6761 1.53374 13.6415 1.65212C13.5738 1.79483 13.4931 1.92838 13.4107 2.06301C13.3773 2.1189 13.3773 2.1189 13.3431 2.17592C13.279 2.28284 13.2142 2.38937 13.1493 2.49587C13.1187 2.54683 13.0882 2.59782 13.0578 2.64885C12.8228 3.03962 12.8228 3.03962 12.6637 3.08913C12.5235 3.09463 12.4561 3.06677 12.3407 2.98806C12.2551 2.85033 12.27 2.7554 12.3055 2.60134C12.3572 2.49316 12.3572 2.49316 12.4234 2.379C12.4352 2.35837 12.4471 2.33773 12.4593 2.31647C12.4971 2.25085 12.5353 2.1855 12.5736 2.12014C12.5985 2.07696 12.6233 2.03377 12.6482 1.99057C13.1412 1.136 13.1412 1.136 13.4301 1.14455Z" fill="white"/>
        <path d="M4.70761 1.13818C4.95852 1.21341 5.08044 1.53364 5.19884 1.74257C5.21946 1.77848 5.24008 1.8144 5.26133 1.8514C5.30302 1.92402 5.34452 1.99674 5.38585 2.06957C5.42918 2.14484 5.47348 2.21956 5.51858 2.29379C5.54077 2.33046 5.56297 2.36713 5.58583 2.40491C5.60601 2.43767 5.62618 2.47043 5.64696 2.50419C5.69959 2.61008 5.7209 2.69504 5.73058 2.81264C5.68724 2.93784 5.6572 3.00363 5.54381 3.07411C5.42407 3.09917 5.35512 3.09764 5.23839 3.05873C5.05175 2.86816 4.93185 2.63229 4.80114 2.40175C4.77854 2.36234 4.75595 2.32294 4.73268 2.28234C4.6664 2.1664 4.60079 2.0501 4.53527 1.93373C4.51433 1.89724 4.49339 1.86075 4.47182 1.82316C4.45256 1.78904 4.4333 1.75492 4.41346 1.71977C4.39633 1.68971 4.3792 1.65965 4.36155 1.62867C4.30557 1.50585 4.31355 1.42597 4.35948 1.30092C4.45104 1.1581 4.54125 1.14381 4.70761 1.13818Z" fill="white"/>
        <path d="M9.14128 15.8905C9.22676 15.9563 9.26928 16.0059 9.31707 16.1015C9.32111 16.1558 9.32302 16.2103 9.32385 16.2648C9.32469 16.3157 9.32469 16.3157 9.32556 16.3676C9.32712 16.5228 9.32856 16.6779 9.32937 16.8331C9.32996 16.915 9.33092 16.9969 9.33226 17.0787C9.33418 17.1967 9.33495 17.3146 9.33547 17.4326C9.33626 17.4692 9.33706 17.5057 9.33788 17.5434C9.33714 17.7978 9.33714 17.7978 9.23256 17.935C9.1448 17.9974 9.10634 18.024 9.00066 18.0219C8.97818 18.0223 8.9557 18.0228 8.93254 18.0233C8.81018 17.9839 8.76242 17.9263 8.68425 17.8241C8.65857 17.6949 8.66129 17.5677 8.66338 17.4363C8.66338 17.38 8.66338 17.38 8.66337 17.3225C8.66356 17.2431 8.66418 17.1638 8.6652 17.0845C8.66667 16.9632 8.66664 16.842 8.6664 16.7207C8.66677 16.6436 8.66722 16.5664 8.66777 16.4893C8.66778 16.4531 8.66779 16.4168 8.6678 16.3795C8.67302 16.0627 8.67302 16.0627 8.78972 15.9257C8.90195 15.8696 9.01945 15.8724 9.14128 15.8905Z" fill="white"/>
        <path d="M16.2688 8.67663C16.3027 8.67607 16.3366 8.6755 16.3716 8.67492C16.5263 8.67336 16.6811 8.67192 16.8358 8.67111C16.9174 8.67052 16.9991 8.66956 17.0807 8.66822C17.1984 8.6663 17.3161 8.66553 17.4339 8.66501C17.4703 8.66422 17.5068 8.66342 17.5443 8.6626C17.7978 8.66334 17.7978 8.66334 17.935 8.76792C17.9974 8.85569 18.024 8.8941 18.0219 8.99982C18.0224 9.0223 18.0228 9.04478 18.0233 9.06794C17.9839 9.1903 17.9263 9.23806 17.8242 9.31623C17.6949 9.34191 17.5677 9.33919 17.4363 9.3371C17.3988 9.3371 17.3612 9.3371 17.3225 9.33711C17.2432 9.33692 17.1639 9.3363 17.0846 9.33528C16.9633 9.33381 16.842 9.33384 16.7207 9.33408C16.6436 9.33371 16.5664 9.33326 16.4893 9.33271C16.4531 9.3327 16.4169 9.33269 16.3796 9.33269C16.0627 9.32746 16.0627 9.32746 15.9257 9.21076C15.8697 9.09878 15.8768 8.98107 15.8906 8.8592C15.9802 8.69279 16.0904 8.67934 16.2688 8.67663Z" fill="white"/>
        <path d="M0.563507 8.66267C0.601078 8.66267 0.638648 8.66267 0.677357 8.66267C0.756671 8.66286 0.835985 8.66347 0.915293 8.66449C1.03659 8.66596 1.15782 8.66594 1.27913 8.66569C1.35626 8.66606 1.4334 8.66652 1.51053 8.66707C1.56486 8.66708 1.56486 8.66708 1.62029 8.66709C1.93714 8.67232 1.93714 8.67232 2.07413 8.78902C2.13024 8.90125 2.12738 9.01875 2.10928 9.14058C2.04354 9.22605 1.99392 9.26857 1.89835 9.31636C1.84401 9.3204 1.7895 9.32232 1.73502 9.32314C1.7011 9.3237 1.66719 9.32427 1.63224 9.32485C1.47706 9.32641 1.32189 9.32786 1.1667 9.32867C1.08482 9.32925 1.00295 9.33021 0.921086 9.33155C0.80312 9.33348 0.685195 9.33425 0.567215 9.33476C0.512385 9.33596 0.512385 9.33596 0.456448 9.33718C0.202031 9.33643 0.202031 9.33643 0.0647879 9.23185C0.00240488 9.14409 -0.0241949 9.10563 -0.0220642 8.99995C-0.0225174 8.97747 -0.0229706 8.955 -0.0234375 8.93184C0.0695725 8.64296 0.309598 8.65863 0.563507 8.66267Z" fill="white"/>
        <path d="M8.99933 -0.0220642C9.02181 -0.0225174 9.04429 -0.0229706 9.06745 -0.0234375C9.18981 0.01596 9.23757 0.073508 9.31574 0.17569C9.34142 0.304941 9.3387 0.432107 9.33661 0.563507C9.33661 0.601078 9.33662 0.638648 9.33662 0.677357C9.33643 0.756671 9.33581 0.835985 9.33479 0.915293C9.33332 1.03659 9.33335 1.15782 9.33359 1.27913C9.33322 1.35626 9.33277 1.4334 9.33222 1.51053C9.33221 1.54675 9.3322 1.58297 9.3322 1.62029C9.32697 1.93714 9.32697 1.93714 9.21027 2.07413C9.0983 2.13011 8.98059 2.12304 8.85871 2.10928C8.74494 2.04802 8.72427 2.02238 8.68293 1.89835C8.67901 1.84267 8.67699 1.78684 8.67615 1.73103C8.67558 1.69711 8.67502 1.6632 8.67443 1.62826C8.67287 1.47352 8.67143 1.31879 8.67062 1.16405C8.67004 1.08241 8.66908 1.00078 8.66773 0.919155C8.66581 0.80142 8.66504 0.683727 8.66452 0.565979C8.66373 0.529536 8.66293 0.493093 8.66211 0.455546C8.66285 0.202013 8.66285 0.202013 8.76744 0.0648651C8.8552 0.00240203 8.89361 -0.0241958 8.99933 -0.0220642Z" fill="white"/>
    </g>
    <defs>
        <clipPath id="clip0_4_6047">
            <rect width="18" height="18" fill="white"/>
        </clipPath>
    </defs>
</svg>
