<svg width="20" height="20" viewBox="0 0 20 20" fill="none" xmlns="http://www.w3.org/2000/svg">
    <path d="M12.5 7.5L11.3477 5.15234C11.1062 4.60937 11.1062 4.60938 10.3125 4.60938C9.79453 4.60938 9.73594 4.60938 9.41406 4.89453L6.61328 7.59375C6.28906 7.92383 6.25 7.96289 6.25 8.63281C6.25 9.12773 6.39766 9.20352 6.97305 9.52734L9.375 10.8594V14.375H10.625V9.92188C10.625 9.92188 9.49219 9.25781 8.73828 8.75L10.6484 6.73828C11.3789 7.85156 11.7148 8.75 12.1328 8.75H15V7.5H12.5Z" fill="#1E8F49"/>
    <path d="M15.1563 17.5C14.4455 17.5 13.7507 17.2893 13.1597 16.8944C12.5687 16.4995 12.1081 15.9382 11.8361 15.2816C11.5641 14.6249 11.4929 13.9023 11.6316 13.2052C11.7702 12.5081 12.1125 11.8677 12.6151 11.3651C13.1177 10.8625 13.758 10.5203 14.4551 10.3816C15.1523 10.2429 15.8748 10.3141 16.5315 10.5861C17.1882 10.8581 17.7495 11.3187 18.1443 11.9097C18.5392 12.5007 18.75 13.1955 18.75 13.9063C18.749 14.8591 18.37 15.7726 17.6963 16.4463C17.0225 17.12 16.1091 17.499 15.1563 17.5ZM15.1563 11.5625C14.6927 11.5625 14.2396 11.7 13.8541 11.9575C13.4687 12.2151 13.1683 12.5811 12.9909 13.0094C12.8135 13.4376 12.7671 13.9089 12.8575 14.3635C12.948 14.8182 13.1712 15.2358 13.499 15.5636C13.8267 15.8914 14.2444 16.1146 14.699 16.205C15.1537 16.2954 15.6249 16.249 16.0532 16.0716C16.4814 15.8942 16.8475 15.5938 17.105 15.2084C17.3625 14.823 17.5 14.3698 17.5 13.9063C17.4993 13.2849 17.2521 12.6892 16.8127 12.2498C16.3734 11.8104 15.7776 11.5633 15.1563 11.5625ZM4.84375 17.5C4.13297 17.5 3.43816 17.2893 2.84717 16.8944C2.25618 16.4995 1.79556 15.9382 1.52356 15.2816C1.25156 14.6249 1.18039 13.9023 1.31905 13.2052C1.45772 12.5081 1.79999 11.8677 2.30259 11.3651C2.80518 10.8625 3.44553 10.5203 4.14265 10.3816C4.83976 10.2429 5.56235 10.3141 6.21902 10.5861C6.87569 10.8581 7.43696 11.3187 7.83185 11.9097C8.22673 12.5007 8.4375 13.1955 8.4375 13.9063C8.43647 14.8591 8.05751 15.7726 7.38377 16.4463C6.71004 17.12 5.79656 17.499 4.84375 17.5ZM4.84375 11.5625C4.3802 11.5625 3.92706 11.7 3.54163 11.9575C3.15621 12.2151 2.8558 12.5811 2.67841 13.0094C2.50102 13.4376 2.4546 13.9089 2.54504 14.3635C2.63547 14.8182 2.85869 15.2358 3.18647 15.5636C3.51425 15.8914 3.93187 16.1146 4.38651 16.205C4.84115 16.2954 5.3124 16.249 5.74067 16.0716C6.16893 15.8942 6.53497 15.5938 6.79251 15.2084C7.05004 14.823 7.1875 14.3698 7.1875 13.9063C7.18678 13.2849 6.93962 12.6892 6.50023 12.2498C6.06085 11.8104 5.46513 11.5633 4.84375 11.5625ZM12.5 5.00004C12.6646 5.00061 12.8278 4.96854 12.9799 4.90568C13.1321 4.84282 13.2703 4.75042 13.3865 4.63381C13.5028 4.51721 13.5948 4.37872 13.6571 4.22636C13.7195 4.07399 13.7511 3.91077 13.75 3.74613C13.7518 3.58232 13.721 3.41978 13.6592 3.26803C13.5975 3.11628 13.5061 2.97836 13.3905 2.86234C13.2748 2.74631 13.1372 2.65451 12.9856 2.59231C12.8341 2.5301 12.6716 2.49873 12.5078 2.50004C12.3437 2.49953 12.181 2.53135 12.0292 2.59369C11.8773 2.65604 11.7392 2.74768 11.6228 2.86339C11.5064 2.9791 11.4138 3.11662 11.3506 3.26808C11.2873 3.41954 11.2544 3.58198 11.2539 3.74613C11.2534 3.91029 11.2852 4.07293 11.3476 4.22478C11.4099 4.37664 11.5016 4.51472 11.6173 4.63116C11.733 4.7476 11.8705 4.8401 12.0219 4.90339C12.1734 4.96669 12.3358 4.99953 12.5 5.00004Z" fill="#1E8F49"/>
</svg>
