<svg width="14" height="14" viewBox="0 0 14 14" fill="none" xmlns="http://www.w3.org/2000/svg">
    <path d="M5.83333 11.6668L5.10417 10.2085L3.5 10.5002" stroke="#74D4FF" stroke-width="1.16667" stroke-linecap="round" stroke-linejoin="round"/>
    <path d="M5.83333 2.3335L5.10417 3.79183L3.5 3.50016" stroke="#74D4FF" stroke-width="1.16667" stroke-linecap="round" stroke-linejoin="round"/>
    <path d="M8.16602 11.6668L8.89518 10.2085L10.4993 10.5002" stroke="#74D4FF" stroke-width="1.16667" stroke-linecap="round" stroke-linejoin="round"/>
    <path d="M8.16602 2.3335L8.89518 3.79183L10.4993 3.50016" stroke="#74D4FF" stroke-width="1.16667" stroke-linecap="round" stroke-linejoin="round"/>
    <path d="M9.91732 12.25L8.16732 8.75H5.83398" stroke="#74D4FF" stroke-width="1.16667" stroke-linecap="round" stroke-linejoin="round"/>
    <path d="M9.91602 1.75L8.16602 5.25L9.04102 7" stroke="#74D4FF" stroke-width="1.16667" stroke-linecap="round" stroke-linejoin="round"/>
    <path d="M1.16602 7H4.95768L5.83268 5.25" stroke="#74D4FF" stroke-width="1.16667" stroke-linecap="round" stroke-linejoin="round"/>
    <path d="M11.666 5.8335L10.791 7.00016L11.666 8.16683" stroke="#74D4FF" stroke-width="1.16667" stroke-linecap="round" stroke-linejoin="round"/>
    <path d="M12.8327 7H9.04102L8.16602 8.75" stroke="#74D4FF" stroke-width="1.16667" stroke-linecap="round" stroke-linejoin="round"/>
    <path d="M2.33398 5.8335L3.20898 7.00016L2.33398 8.16683" stroke="#74D4FF" stroke-width="1.16667" stroke-linecap="round" stroke-linejoin="round"/>
    <path d="M4.08398 12.25L5.83398 8.75L4.95898 7" stroke="#74D4FF" stroke-width="1.16667" stroke-linecap="round" stroke-linejoin="round"/>
    <path d="M4.08398 1.75L5.83398 5.25H8.16732" stroke="#74D4FF" stroke-width="1.16667" stroke-linecap="round" stroke-linejoin="round"/>
</svg>
