<svg width="16" height="16" viewBox="0 0 16 16" fill="none" xmlns="http://www.w3.org/2000/svg">
    <path d="M6.66797 7.3335V11.3335" stroke="#B40009" stroke-width="1.33333" stroke-linecap="round" stroke-linejoin="round"/>
    <path d="M9.33203 7.3335V11.3335" stroke="#B40009" stroke-width="1.33333" stroke-linecap="round" stroke-linejoin="round"/>
    <path d="M12.6654 4V13.3333C12.6654 13.687 12.5249 14.0261 12.2748 14.2761C12.0248 14.5262 11.6857 14.6667 11.332 14.6667H4.66536C4.31174 14.6667 3.9726 14.5262 3.72256 14.2761C3.47251 14.0261 3.33203 13.687 3.33203 13.3333V4" stroke="#B40009" stroke-width="1.33333" stroke-linecap="round" stroke-linejoin="round"/>
    <path d="M2 4H14" stroke="#B40009" stroke-width="1.33333" stroke-linecap="round" stroke-linejoin="round"/>
    <path d="M5.33203 4.00016V2.66683C5.33203 2.31321 5.47251 1.97407 5.72256 1.72402C5.9726 1.47397 6.31174 1.3335 6.66536 1.3335H9.33203C9.68565 1.3335 10.0248 1.47397 10.2748 1.72402C10.5249 1.97407 10.6654 2.31321 10.6654 2.66683V4.00016" stroke="#B40009" stroke-width="1.33333" stroke-linecap="round" stroke-linejoin="round"/>
</svg>
