<svg width="20" height="20" viewBox="0 0 20 20" fill="none" xmlns="http://www.w3.org/2000/svg">
    <path d="M8.33203 9.1665V14.1665" stroke="#FF2056" stroke-width="1.66667" stroke-linecap="round" stroke-linejoin="round"/>
    <path d="M11.668 9.1665V14.1665" stroke="#FF2056" stroke-width="1.66667" stroke-linecap="round" stroke-linejoin="round"/>
    <path d="M15.8346 5V16.6667C15.8346 17.1087 15.659 17.5326 15.3465 17.8452C15.0339 18.1577 14.61 18.3333 14.168 18.3333H5.83464C5.39261 18.3333 4.96868 18.1577 4.65612 17.8452C4.34356 17.5326 4.16797 17.1087 4.16797 16.6667V5" stroke="#FF2056" stroke-width="1.66667" stroke-linecap="round" stroke-linejoin="round"/>
    <path d="M2.5 5H17.5" stroke="#FF2056" stroke-width="1.66667" stroke-linecap="round" stroke-linejoin="round"/>
    <path d="M6.66797 4.99984V3.33317C6.66797 2.89114 6.84356 2.46722 7.15612 2.15466C7.46869 1.8421 7.89261 1.6665 8.33464 1.6665H11.668C12.11 1.6665 12.5339 1.8421 12.8465 2.15466C13.159 2.46722 13.3346 2.89114 13.3346 3.33317V4.99984" stroke="#FF2056" stroke-width="1.66667" stroke-linecap="round" stroke-linejoin="round"/>
</svg>
