<svg width="22" height="22" viewBox="0 0 22 22" fill="none" xmlns="http://www.w3.org/2000/svg">
    <path d="M13.5624 0.893123C13.714 1.00011 13.8671 1.10494 14.02 1.21001C14.1862 1.32434 14.3521 1.43921 14.518 1.55405C14.7221 1.69525 14.9264 1.83614 15.1307 1.97706C15.2119 2.03313 15.2931 2.0892 15.3744 2.14527C15.4146 2.17302 15.4548 2.20078 15.4963 2.22937C16.654 3.02835 16.654 3.02835 17.8117 3.82733C17.8721 3.86898 17.8721 3.86898 17.9336 3.91146C18.0147 3.96745 18.0959 4.02343 18.177 4.07942C18.4234 4.24951 18.6699 4.41956 18.9164 4.58956C18.9984 4.64613 19.0804 4.70275 19.1623 4.75941C19.3543 4.8922 19.5466 5.0245 19.7399 5.1554C20.8437 5.90519 21.6225 6.70682 21.9295 8.05837C21.9732 8.32023 21.9884 8.57523 21.9881 8.84019C21.9883 8.90133 21.9883 8.90133 21.9885 8.96371C21.989 9.09953 21.989 9.23535 21.9891 9.37117C21.9894 9.46889 21.9896 9.5666 21.9899 9.66432C21.9906 9.92932 21.9909 10.1943 21.9911 10.4593C21.9913 10.6252 21.9915 10.791 21.9917 10.9569C21.9924 11.4766 21.9929 11.9963 21.9931 12.516C21.9933 13.1144 21.9942 13.7128 21.9957 14.3112C21.9968 14.7747 21.9974 15.2382 21.9974 15.7017C21.9975 15.9781 21.9978 16.2544 21.9987 16.5308C21.9995 16.7911 21.9997 17.0514 21.9992 17.3118C21.9992 17.4068 21.9994 17.5017 21.9999 17.5967C22.0064 18.8785 21.7134 19.9562 20.8007 20.8938C20.7659 20.9301 20.7312 20.9664 20.6954 21.0038C19.9312 21.7471 18.9171 21.9888 17.8848 21.988C17.8238 21.9881 17.7629 21.9883 17.7001 21.9884C17.5315 21.9888 17.363 21.9889 17.1945 21.989C17.0124 21.9891 16.8304 21.9895 16.6484 21.9898C16.2506 21.9905 15.8528 21.9908 15.455 21.9911C15.2063 21.9912 14.9577 21.9914 14.709 21.9916C14.0198 21.9923 13.3305 21.9928 12.6413 21.993C12.5752 21.993 12.5752 21.993 12.5077 21.993C12.4635 21.993 12.4194 21.993 12.3738 21.9931C12.2843 21.9931 12.1948 21.9931 12.1053 21.9931C12.0387 21.9931 12.0387 21.9931 11.9707 21.9932C11.2519 21.9934 10.5331 21.9943 9.81424 21.9955C9.07522 21.9967 8.33621 21.9973 7.59719 21.9974C7.18267 21.9975 6.76815 21.9977 6.35363 21.9987C6.00052 21.9995 5.64741 21.9998 5.2943 21.9993C5.11441 21.9991 4.93453 21.9992 4.75465 21.9999C3.3258 22.0047 2.15995 21.8433 1.09672 20.7903C1.06074 20.7553 1.02475 20.7203 0.987682 20.6842C0.315041 19.9805 0.010812 19.0049 0.0119544 18.0418C0.0118019 18.001 0.0116495 17.9602 0.0114924 17.9182C0.0110495 17.7824 0.0109695 17.6466 0.0108927 17.5108C0.010655 17.4131 0.0103972 17.3154 0.0101207 17.2176C0.00944901 16.9526 0.00911655 16.6876 0.00888831 16.4226C0.0087376 16.2568 0.00852686 16.0909 0.00829795 15.9251C0.00759662 15.4054 0.00710102 14.8856 0.00690271 14.3659C0.00667309 13.7675 0.00577414 13.1692 0.00428604 12.5708C0.0031737 12.1073 0.00265857 11.6437 0.00259014 11.1802C0.00253658 10.9039 0.00223843 10.6275 0.00131704 10.3512C0.00046598 10.0908 0.000363568 9.83051 0.000811247 9.57018C0.000850493 9.4752 0.000631727 9.38021 0.000120672 9.28523C-0.00540236 8.19378 0.177247 7.2467 0.840159 6.35043C0.867476 6.31327 0.894794 6.27611 0.92294 6.23782C1.32317 5.73797 1.90001 5.38944 2.42723 5.04036C2.65706 4.88802 2.88396 4.73149 3.11073 4.57456C3.15172 4.54622 3.1927 4.51788 3.23493 4.48867C3.31858 4.43081 3.40222 4.37294 3.48585 4.31505C3.68993 4.17385 3.89422 4.03295 4.09849 3.89203C4.17974 3.83596 4.26098 3.77989 4.34223 3.72382C5.15467 3.16314 5.96712 2.60245 6.77956 2.04176C6.8198 2.01399 6.86004 1.98622 6.90149 1.9576C6.98252 1.90169 7.06356 1.84579 7.1446 1.7899C7.35112 1.64747 7.55747 1.50478 7.76352 1.36165C8.00364 1.19497 8.24444 1.02932 8.4857 0.864313C8.53643 0.829437 8.53643 0.829437 8.58818 0.793857C10.2187 -0.321869 11.9671 -0.236673 13.5624 0.893123ZM7.81864 17.2192C7.7365 17.3849 7.74171 17.5569 7.76733 17.7367C7.85936 17.8821 7.92223 17.9701 8.0752 18.0472C8.15263 18.0525 8.23029 18.0545 8.30789 18.0549C8.35688 18.0552 8.40587 18.0556 8.45634 18.056C8.51027 18.0561 8.5642 18.0563 8.61976 18.0564C8.67641 18.0568 8.73307 18.0571 8.79145 18.0574C8.97957 18.0585 9.16768 18.0591 9.35581 18.0596C9.41993 18.0598 9.48405 18.06 9.55012 18.0602C9.85442 18.0612 10.1587 18.0619 10.463 18.0624C10.8142 18.0629 11.1654 18.0642 11.5166 18.0663C11.8209 18.0681 12.1251 18.0687 12.4293 18.0689C12.5587 18.0692 12.6881 18.0698 12.8175 18.0707C12.9985 18.072 13.1794 18.0719 13.3603 18.0716C13.414 18.0722 13.4676 18.0729 13.5228 18.0736C13.8191 18.0715 13.8191 18.0715 14.0852 17.9487C14.2359 17.7787 14.2498 17.6567 14.2477 17.4282C14.2243 17.2641 14.1427 17.1768 14.0274 17.0639C13.9049 17.0021 13.829 17.0052 13.6921 17.0045C13.6431 17.0041 13.5941 17.0038 13.5437 17.0034C13.4897 17.0033 13.4358 17.0031 13.3803 17.003C13.3236 17.0026 13.2669 17.0023 13.2086 17.0019C13.0204 17.0009 12.8323 17.0003 12.6442 16.9998C12.5801 16.9996 12.516 16.9994 12.4499 16.9992C12.1456 16.9982 11.8413 16.9974 11.537 16.997C11.1858 16.9965 10.8346 16.9951 10.4834 16.993C10.1792 16.9913 9.87494 16.9907 9.57071 16.9905C9.44131 16.9902 9.31191 16.9896 9.18252 16.9887C9.00156 16.9874 8.82064 16.9874 8.63968 16.9878C8.58606 16.9871 8.53245 16.9865 8.47721 16.9858C8.1943 16.9879 8.01862 16.9937 7.81864 17.2192Z" fill="white"/>
</svg>
