<svg width="16" height="13" viewBox="0 0 16 13" fill="none" xmlns="http://www.w3.org/2000/svg">
    <path d="M15.5 6.5C15.5 3.67175 15.5 2.25725 14.621 1.379C13.742 0.50075 12.3283 0.5 9.5 0.5H6.5C3.67175 0.5 2.25725 0.5 1.379 1.379C0.50075 2.258 0.5 3.67175 0.5 6.5C0.5 9.32825 0.5 10.7427 1.379 11.621C2.258 12.4992 3.67175 12.5 6.5 12.5H9.5C12.3283 12.5 13.7428 12.5 14.621 11.621C15.1115 11.1312 15.3283 10.475 15.4235 9.5M6.5 9.5H3.5M9.5 9.5H8.375M0.5 5H4.25M15.5 5H7.25" stroke="#FFB020" stroke-linecap="round"/>
</svg>
