<svg width="23" height="22" viewBox="0 0 23 22" fill="none" xmlns="http://www.w3.org/2000/svg">
    <path d="M8.80757 0.00175669C9.06179 0.00189559 9.31601 0.00176597 9.57023 0.00168191C9.99673 0.00158443 10.4232 0.00171135 10.8497 0.00197001C11.3392 0.00226346 11.8286 0.00216832 12.3181 0.00187149C12.7422 0.00162478 13.1664 0.00159306 13.5905 0.00173331C13.8421 0.00181638 14.0938 0.00183155 14.3454 0.00165043C19.3951 -0.00146929 19.3951 -0.00146931 21.0012 1.41159C21.0412 1.44399 21.0811 1.4764 21.1222 1.50978C22.2345 2.43934 22.7761 3.82847 22.9064 5.24647C22.9326 5.54385 22.9502 5.84096 22.9628 6.13921C22.965 6.19248 22.9673 6.24575 22.9696 6.30064C22.9937 6.91517 22.9956 7.52952 22.9958 8.14445C22.996 8.26899 22.9962 8.39353 22.9964 8.51807C22.9967 8.77697 22.9968 9.03586 22.9968 9.29476C22.9968 9.62267 22.9975 9.95057 22.9984 10.2785C22.999 10.535 22.9991 10.7916 22.9991 11.0482C22.9992 11.1689 22.9994 11.2896 22.9998 11.4104C23.0018 12.0366 22.9889 12.6578 22.9383 13.2821C22.9318 13.3614 22.9318 13.3614 22.9253 13.4423C22.7946 14.9009 22.0246 16.1984 20.9476 17.1637C19.806 18.1195 18.4632 18.4707 16.9991 18.4769C16.9268 18.4777 16.8546 18.4785 16.7824 18.4793C16.5564 18.4819 16.3304 18.4837 16.1044 18.4854C14.451 18.4572 14.451 18.4572 12.8376 18.7584C12.7713 18.7794 12.7713 18.7794 12.7037 18.8008C11.8938 19.0703 11.2263 19.5327 10.5484 20.0421C10.3591 20.183 10.1662 20.3186 9.97323 20.4544C9.69348 20.6518 9.41567 20.8516 9.13937 21.0538C7.77502 22.0519 7.77502 22.0519 7.10219 21.9648C6.7362 21.8468 6.44895 21.6467 6.24356 21.3175C6.13498 21.0988 6.12176 20.9167 6.12281 20.6735C6.1224 20.5777 6.1224 20.5777 6.12198 20.4799C6.13631 20.2915 6.18079 20.1459 6.24356 19.9689C6.29705 19.6106 6.22331 19.3018 6.0289 18.9978C5.7513 18.6884 5.46845 18.5718 5.06294 18.5123C4.96024 18.5071 4.85741 18.504 4.75458 18.5028C3.41681 18.477 2.19743 18.1828 1.22969 17.1931C0.0783519 15.9423 -0.00714095 14.5342 0.000409272 12.916C0.00122768 12.706 0.00115339 12.496 0.00119619 12.286C0.00139339 11.9331 0.00219119 11.5803 0.00340709 11.2275C0.00495137 10.7786 0.00551206 10.3297 0.00575146 9.88075C0.0059674 9.49028 0.00663825 9.09981 0.00738016 8.70934C0.00759709 8.58609 0.00775566 8.46283 0.00790586 8.33958C0.0145453 3.68859 0.0145449 3.68859 1.36011 2.05893C1.39753 2.01248 1.43496 1.96603 1.47352 1.91817C2.52185 0.677467 3.97979 0.201363 5.54592 0.0629485C6.6307 -0.0144518 7.72079 0.000974354 8.80757 0.00175669ZM10.7514 6.53641C10.6518 6.83679 10.6488 7.13149 10.7815 7.41977C10.996 7.65198 11.208 7.78519 11.5225 7.80456C11.6112 7.80583 11.6999 7.80594 11.7886 7.80508C11.8373 7.80546 11.8861 7.80584 11.9363 7.80623C12.0965 7.80717 12.2566 7.80655 12.4168 7.80582C12.5286 7.80596 12.6404 7.80617 12.7522 7.80644C12.9861 7.80676 13.22 7.8063 13.4539 7.80529C13.7534 7.80406 14.0528 7.80477 14.3523 7.80606C14.583 7.80684 14.8137 7.80659 15.0444 7.80604C15.1548 7.80589 15.2653 7.80607 15.3757 7.80657C15.5301 7.80712 15.6844 7.80628 15.8388 7.80508C15.9069 7.80574 15.9069 7.80574 15.9764 7.8064C16.3293 7.80133 16.5204 7.68881 16.7785 7.44337C16.9043 7.23262 16.9394 7.05108 16.9228 6.80614C16.8516 6.55377 16.7479 6.40639 16.5437 6.24308C16.2791 6.10156 16.0568 6.09655 15.7637 6.09616C15.7165 6.09589 15.6694 6.09562 15.6208 6.09534C15.4647 6.09456 15.3086 6.09419 15.1525 6.09389C15.044 6.09358 14.9355 6.09327 14.827 6.09296C14.5994 6.09239 14.3718 6.09208 14.1442 6.09189C13.8528 6.09159 13.5614 6.0903 13.2699 6.08876C13.0458 6.08776 12.8216 6.08748 12.5975 6.08739C12.49 6.08723 12.3826 6.0868 12.2752 6.08609C12.1248 6.08517 11.9744 6.08527 11.824 6.08562C11.7797 6.08512 11.7354 6.08463 11.6899 6.08411C11.2791 6.0871 11.0249 6.22211 10.7514 6.53641ZM6.27374 11.0206C6.10779 11.2362 6.06144 11.445 6.08257 11.7152C6.17008 11.9693 6.30337 12.1409 6.51188 12.3086C6.93446 12.46 7.37696 12.4321 7.81972 12.4313C7.90888 12.4315 7.99804 12.4318 8.0872 12.4321C8.32847 12.4328 8.56974 12.4329 8.811 12.4327C9.01277 12.4327 9.21454 12.433 9.41631 12.4332C9.89247 12.4338 10.3686 12.4338 10.8448 12.4335C11.3353 12.4332 11.8257 12.4338 12.3162 12.435C12.7381 12.4359 13.1599 12.4363 13.5818 12.4361C13.8334 12.436 14.085 12.4361 14.3367 12.4369C14.5733 12.4376 14.81 12.4375 15.0467 12.4368C15.1333 12.4366 15.2198 12.4368 15.3064 12.4372C16.0832 12.4559 16.0832 12.4559 16.7349 12.0861C16.8977 11.8705 16.9437 11.6597 16.9228 11.3915C16.8352 11.1372 16.7001 10.9681 16.4934 10.7981C16.2314 10.706 16.0017 10.6766 15.7251 10.6762C15.6874 10.6759 15.6497 10.6757 15.6108 10.6755C15.4854 10.675 15.36 10.6752 15.2346 10.6754C15.1444 10.6752 15.0541 10.6749 14.9638 10.6746C14.7192 10.6738 14.4746 10.6738 14.23 10.674C14.0255 10.674 13.8211 10.6737 13.6167 10.6735C13.1343 10.6729 12.6518 10.6729 12.1694 10.6732C11.6723 10.6735 11.1751 10.6729 10.678 10.6717C10.2506 10.6708 9.82326 10.6704 9.39589 10.6706C9.14087 10.6707 8.88586 10.6706 8.63085 10.6698C8.391 10.6691 8.15117 10.6692 7.91133 10.6699C7.8235 10.6701 7.73567 10.6699 7.64785 10.6695C6.89261 10.6419 6.89261 10.6419 6.27374 11.0206Z" fill="#F8F8F8"/>
</svg>
