<svg width="16" height="16" viewBox="0 0 16 16" fill="none" xmlns="http://www.w3.org/2000/svg">
    <path d="M11.7867 3.81144C12.0056 3.93668 12.135 4.10054 12.2048 4.34318C12.2535 4.57205 12.2153 4.74872 12.1235 4.96256C12.1138 4.98576 12.104 5.00895 12.0939 5.03285C11.9964 5.2621 11.8906 5.48728 11.7828 5.71187C11.7242 5.83405 11.6661 5.95647 11.608 6.07889C11.5962 6.10375 11.5844 6.12862 11.5723 6.15423C11.456 6.39976 11.3436 6.64696 11.2319 6.89457C11.0722 7.24826 10.9094 7.60031 10.7436 7.95121C10.553 8.35488 10.3645 8.75945 10.178 9.16506C10.116 9.29991 10.0538 9.4347 9.99169 9.56949C9.97997 9.59491 9.96825 9.62033 9.95618 9.64652C9.89567 9.77776 9.8351 9.90896 9.77444 10.0401C9.7625 10.0659 9.75056 10.0918 9.73826 10.1183C9.71431 10.1702 9.69035 10.222 9.66639 10.2738C9.5994 10.4187 9.5328 10.5638 9.46665 10.7091C9.42765 10.7947 9.38841 10.8802 9.34913 10.9657C9.32277 11.0232 9.29673 11.081 9.27069 11.1387C9.04535 11.6276 8.75982 12.012 8.2495 12.2188C7.97634 12.3089 7.63393 12.2728 7.3745 12.1563C7.07328 11.9967 6.8555 11.7635 6.7495 11.4375C6.61855 10.9714 6.71924 10.5603 6.94872 10.1465C7.09551 9.89391 7.25535 9.64904 7.41295 9.40311C7.72097 8.92213 8.02026 8.43564 8.31912 7.94894C8.45584 7.72653 8.59405 7.50516 8.73386 7.28469C8.8577 7.08938 8.98052 6.89345 9.10302 6.6973C9.12272 6.66576 9.14242 6.63421 9.16272 6.60171C9.20286 6.53741 9.24301 6.47311 9.28315 6.4088C9.38125 6.25168 9.47944 6.09461 9.57762 5.93754C9.61669 5.87504 9.65575 5.81254 9.69481 5.75004C9.77294 5.62504 9.85106 5.50004 9.92919 5.37504C9.94854 5.34406 9.96789 5.31308 9.98783 5.28116C10.0267 5.21906 10.0655 5.15699 10.1045 5.09495C10.2061 4.93284 10.3067 4.77014 10.4056 4.60636C10.4263 4.57254 10.4469 4.53872 10.4681 4.50388C10.5073 4.43956 10.5462 4.37503 10.5847 4.31028C10.8489 3.87892 11.2716 3.5812 11.7867 3.81144Z" fill="white"/>
    <path d="M9.03093 3.90638C9.21647 4.10013 9.26142 4.26402 9.25822 4.52906C9.23872 4.74836 9.1332 4.88348 8.97075 5.0243C8.80701 5.12113 8.63798 5.13223 8.45182 5.12794C8.4064 5.12721 8.36097 5.12651 8.31555 5.12583C8.29204 5.12537 8.26853 5.12492 8.24431 5.12445C6.47331 5.09355 4.92442 5.72054 3.63115 6.92518C2.44351 8.0852 1.84836 9.67016 1.75476 11.3038C1.72426 11.7953 1.72426 11.7953 1.53532 12.0009C1.33291 12.1456 1.17373 12.2045 0.923503 12.1759C0.724651 12.1325 0.594913 12.0324 0.468425 11.8751C0.344474 11.6652 0.360726 11.4232 0.374675 11.1876C0.376171 11.1622 0.377666 11.1368 0.379207 11.1107C0.440674 10.1503 0.64177 9.22604 1.03093 8.34388C1.0418 8.31901 1.05267 8.29413 1.06387 8.2685C1.37781 7.55758 1.80307 6.92821 2.31218 6.34388C2.33067 6.32189 2.34916 6.29989 2.36821 6.27723C2.64127 5.95495 2.94778 5.66545 3.28093 5.40638C3.31198 5.38141 3.34304 5.35643 3.37504 5.3307C3.61325 5.14077 3.86279 4.97513 4.12426 4.81896C4.16498 4.79464 4.20559 4.77013 4.24606 4.74539C5.05874 4.24996 5.99801 3.94636 6.93718 3.81263C6.96132 3.80902 6.98546 3.8054 7.01034 3.80168C8.55025 3.57785 8.55025 3.57785 9.03093 3.90638Z" fill="white"/>
    <path d="M13.4692 6.06258C13.9498 6.45319 14.3236 7.05799 14.6254 7.59383C14.6378 7.61539 14.6501 7.63695 14.6629 7.65916C15.2714 8.72827 15.9094 10.4951 15.5961 11.7481C15.5221 11.9324 15.3635 12.0712 15.1863 12.1556C15.009 12.2089 14.8189 12.2021 14.6502 12.1247C14.4668 12.0169 14.3498 11.8915 14.2817 11.6876C14.2721 11.6086 14.2651 11.5318 14.2605 11.4526C14.2573 11.4057 14.2541 11.3588 14.2508 11.3119C14.2492 11.2875 14.2475 11.2631 14.2459 11.2379C14.1409 9.71505 13.6133 8.39898 12.6442 7.22152C12.6107 7.18055 12.6107 7.18055 12.5766 7.13876C12.5572 7.11551 12.5378 7.09227 12.5179 7.06832C12.3792 6.87405 12.3841 6.66834 12.4067 6.43758C12.4597 6.25934 12.6009 6.13393 12.7504 6.03133C12.9775 5.92274 13.2522 5.93464 13.4692 6.06258Z" fill="white"/>
</svg>
