<svg width="18" height="18" viewBox="0 0 18 18" fill="none" xmlns="http://www.w3.org/2000/svg">
    <path d="M10.5 3V10.905C11.0719 11.2352 11.5189 11.7449 11.7716 12.355C12.0244 12.9652 12.0687 13.6416 11.8978 14.2795C11.7269 14.9174 11.3502 15.4811 10.8263 15.8831C10.3024 16.2852 9.6604 16.5031 9 16.5031C8.3396 16.5031 7.69765 16.2852 7.17372 15.8831C6.64978 15.4811 6.27315 14.9174 6.10222 14.2795C5.9313 13.6416 5.97564 12.9652 6.22836 12.355C6.48109 11.7449 6.92808 11.2352 7.5 10.905V3C7.5 2.60218 7.65804 2.22064 7.93934 1.93934C8.22065 1.65804 8.60218 1.5 9 1.5C9.39783 1.5 9.77936 1.65804 10.0607 1.93934C10.342 2.22064 10.5 2.60218 10.5 3Z" stroke="#5EC8F5" stroke-width="1.5" stroke-linecap="round" stroke-linejoin="round"/>
</svg>
