<svg width="24" height="24" viewBox="0 0 24 24" fill="none" xmlns="http://www.w3.org/2000/svg">
    <path d="M11.9872 4.01383C12.0758 4.02812 12.1652 4.03734 12.2545 4.04527C12.8045 4.11841 13.1793 4.65026 13.5152 5.05217C13.9228 5.60205 14.1521 6.15619 14.1092 6.84349C14.0543 7.1733 13.8539 7.39485 13.5936 7.59349C12.5852 8.20174 11.3666 8.37048 10.2255 8.09568C9.95115 8.02448 9.68365 7.93634 9.42171 7.82787C9.40902 7.86013 9.39633 7.8924 9.38326 7.92564C9.34496 8.02026 9.30505 8.11423 9.26387 8.20763C8.93792 8.96932 8.80292 9.76659 8.80355 10.5935C8.8035 10.6568 8.8035 10.6568 8.80346 10.7213C8.80619 11.075 8.8391 11.4206 8.88558 11.7709C8.90514 11.9445 8.90973 12.1067 8.90609 12.281C8.95884 12.2618 9.01159 12.2426 9.06594 12.2228C10.0098 11.8878 10.8735 11.8569 11.8601 12.0113C11.8994 12.017 11.9386 12.0227 11.979 12.0286C12.0529 12.0402 12.1264 12.0538 12.1994 12.0699C12.5256 12.1311 12.7378 12.0115 13.0223 11.8591C14.1247 11.3023 15.2867 10.9617 16.5262 10.9568C16.6163 10.9553 16.6163 10.9553 16.7083 10.9538C17.7879 10.9495 18.7436 11.3332 19.5467 12.0466C19.5795 12.0754 19.6122 12.1043 19.646 12.134C20.3523 12.7964 20.958 13.8575 21.0081 14.8332C21.0314 16.2045 20.9217 17.4855 19.9124 18.5322C18.9402 19.4488 17.4485 20.0148 16.1248 20.1091C16.0868 20.1119 16.0487 20.1147 16.0095 20.1175C15.1067 20.1477 14.2341 19.8703 13.5672 19.2624C13.5091 19.2051 13.5091 19.2051 13.4498 19.1465C13.2921 19.0678 13.2721 19.0749 13.1128 19.1279C13.0384 19.1575 12.9643 19.1878 12.8905 19.2185C12.8196 19.2427 12.7485 19.2661 12.6771 19.2888C12.6411 19.3003 12.605 19.3119 12.5679 19.3238C10.2689 20.0374 7.87843 19.5562 5.78231 18.4646C5.13857 18.1197 4.5395 17.7108 3.96493 17.2609C3.89938 17.2098 3.83265 17.1603 3.76577 17.1109C3.26874 16.6778 3.00535 16.0188 2.95296 15.3747C2.83365 12.6041 4.60852 9.21681 6.42171 7.21849C6.49656 7.15073 6.57173 7.08331 6.6473 7.01634C6.87928 6.79178 6.95545 6.53516 7.05727 6.23705C7.24738 5.68505 7.56 5.27799 7.96859 4.87474C8.00049 4.8429 8.03239 4.81105 8.06527 4.77824C9.12343 3.78842 10.646 3.77937 11.9872 4.01383Z" fill="#FB2C36"/>
</svg>
