<svg width="16" height="16" viewBox="0 0 16 16" fill="none" xmlns="http://www.w3.org/2000/svg">
    <path d="M8.27224 1.04793C8.41123 1.14495 8.52713 1.26784 8.64642 1.38749C8.68675 1.42758 8.68675 1.42758 8.72791 1.46848C8.80224 1.54243 8.87643 1.61651 8.95056 1.69066C9.03065 1.7707 9.11092 1.85056 9.19117 1.93044C9.36643 2.10499 9.54146 2.27977 9.71644 2.4546C9.82574 2.56379 9.93509 2.67294 10.0444 2.78207C10.3473 3.08436 10.6502 3.3867 10.9528 3.68924C10.9819 3.71826 10.9819 3.71826 11.0115 3.74787C11.0507 3.78708 11.0899 3.8263 11.1292 3.86551C11.1486 3.88498 11.1681 3.90444 11.1882 3.9245C11.2077 3.94399 11.2271 3.96348 11.2472 3.98356C11.5633 4.29953 11.8798 4.61513 12.1964 4.93058C12.5216 5.2546 12.8465 5.57892 13.1711 5.90353C13.3533 6.08572 13.5357 6.26779 13.7183 6.44954C13.8738 6.60425 14.029 6.75923 14.1839 6.91455C14.2629 6.99377 14.342 7.07286 14.4214 7.1516C14.5076 7.23703 14.5932 7.32305 14.6787 7.40914C14.7038 7.43386 14.729 7.45858 14.7549 7.48405C14.9049 7.63633 15.0247 7.77761 15.0344 8.00161C15.0232 8.15571 14.9736 8.25823 14.8754 8.375C14.7415 8.48759 14.6132 8.53895 14.4379 8.53125C14.2116 8.47021 14.0861 8.35773 13.9241 8.19251C13.8861 8.15468 13.8861 8.15468 13.8473 8.11609C13.7626 8.03167 13.6785 7.94671 13.5944 7.86173C13.5337 7.80099 13.473 7.74036 13.4123 7.67974C13.2817 7.54924 13.1514 7.41845 13.0213 7.28748C12.8332 7.0981 12.6447 6.90917 12.456 6.72033C12.15 6.41392 11.8443 6.10717 11.5388 5.80019C11.2421 5.50206 10.9452 5.20409 10.6481 4.90633C10.6298 4.88797 10.6115 4.86961 10.5926 4.85069C10.5007 4.75856 10.4087 4.66643 10.3168 4.57431C9.55457 3.81045 8.79291 3.04604 8.03161 2.28125C7.93597 2.32394 7.8705 2.37219 7.79685 2.44635C7.76489 2.47829 7.76489 2.47829 7.73229 2.51087C7.70914 2.53434 7.68599 2.5578 7.66213 2.58198C7.63734 2.60685 7.61254 2.63172 7.587 2.65735C7.50368 2.741 7.42059 2.82487 7.3375 2.90874C7.27793 2.96867 7.21832 3.02855 7.1587 3.08842C7.0302 3.21754 6.90179 3.34675 6.77345 3.47603C6.57053 3.68042 6.36728 3.88448 6.16397 4.08849C6.0944 4.15831 6.02484 4.22813 5.95527 4.29795C5.93789 4.3154 5.9205 4.33285 5.90259 4.35083C5.7047 4.54945 5.50689 4.74813 5.3091 4.94685C5.29102 4.96501 5.27294 4.98317 5.25431 5.00189C4.96142 5.29617 4.66876 5.59069 4.37617 5.88528C4.07567 6.18779 3.77482 6.48995 3.47366 6.7918C3.28796 6.97795 3.10257 7.16438 2.91756 7.35121C2.79069 7.47926 2.66348 7.60698 2.536 7.73443C2.46249 7.80794 2.3892 7.88164 2.31621 7.95566C2.23696 8.03598 2.15716 8.1157 2.07718 8.1953C2.04297 8.2304 2.04297 8.2304 2.00807 8.2662C1.86567 8.4064 1.73251 8.49965 1.53161 8.53125C1.33536 8.51952 1.19642 8.46195 1.06286 8.3125C0.987211 8.17435 0.956512 8.04512 0.98083 7.88867C1.06186 7.62063 1.32662 7.41905 1.51938 7.22617C1.54568 7.19974 1.57197 7.1733 1.59907 7.14607C1.67143 7.07336 1.74387 7.00072 1.81633 6.92811C1.89471 6.84954 1.97301 6.77088 2.05132 6.69224C2.23999 6.50281 2.42881 6.31353 2.61765 6.12428C2.67102 6.07079 2.72439 6.0173 2.77775 5.96381C3.10955 5.63122 3.44141 5.29868 3.77341 4.96629C3.85012 4.88949 3.92682 4.81269 4.00353 4.73589C4.02259 4.71681 4.04165 4.69772 4.06129 4.67806C4.37055 4.3684 4.67948 4.05843 4.98829 3.74833C5.30568 3.42961 5.62336 3.11119 5.94134 2.79305C6.11973 2.61455 6.29799 2.43593 6.47592 2.25697C6.62731 2.1047 6.77897 1.9527 6.93097 1.80104C7.00848 1.7237 7.08586 1.64623 7.1629 1.56842C7.24654 1.48407 7.33064 1.40022 7.41488 1.31648C7.43905 1.29188 7.46322 1.26728 7.48812 1.24193C7.71258 1.02072 7.96762 0.874905 8.27224 1.04793Z" fill="#A1A1A1"/>
    <path d="M3.18812 9C3.34328 9.07204 3.42029 9.16299 3.50062 9.3125C3.51835 9.41892 3.5173 9.52373 3.51619 9.63142C3.51637 9.6631 3.51654 9.69478 3.51672 9.72743C3.51701 9.79607 3.51701 9.86472 3.51676 9.93337C3.51636 10.0423 3.51672 10.1513 3.51726 10.2602C3.5181 10.4526 3.51827 10.6449 3.51823 10.8372C3.51816 11.1443 3.51861 11.4514 3.51996 11.7584C3.52027 11.8652 3.52 11.972 3.51969 12.0787C3.52019 12.6207 3.55662 13.1224 3.94398 13.5431C4.2939 13.8561 4.70416 13.9737 5.16513 13.9731C5.20285 13.9733 5.20285 13.9733 5.24133 13.9734C5.32514 13.9737 5.40895 13.9737 5.49276 13.9738C5.55304 13.9739 5.61332 13.9741 5.6736 13.9743C5.8371 13.9747 6.00059 13.9749 6.16408 13.975C6.26638 13.9751 6.36867 13.9752 6.47097 13.9754C6.79146 13.9758 7.11196 13.9761 7.43245 13.9762C7.80159 13.9764 8.17073 13.9769 8.53987 13.9778C8.82574 13.9785 9.1116 13.9788 9.39746 13.9788C9.56794 13.9789 9.73842 13.9791 9.9089 13.9796C10.0694 13.9801 10.23 13.9802 10.3905 13.9799C10.4492 13.9799 10.5078 13.98 10.5664 13.9803C11.0988 13.983 11.5276 13.9284 11.9772 13.6172C12.322 13.2724 12.4749 12.8599 12.4777 12.378C12.4775 12.3337 12.4775 12.3337 12.4774 12.2884C12.4775 12.2564 12.4776 12.2243 12.4777 12.1913C12.4779 12.1223 12.478 12.0532 12.4779 11.9842C12.4779 11.8749 12.4783 11.7656 12.4789 11.6564C12.4803 11.3458 12.4811 11.0353 12.4813 10.7247C12.4814 10.5343 12.4822 10.3439 12.4833 10.1535C12.4836 10.0811 12.4837 10.0086 12.4835 9.93623C12.4833 9.83511 12.4838 9.73402 12.4846 9.6329C12.4842 9.58819 12.4842 9.58819 12.4838 9.54257C12.486 9.36652 12.5076 9.26438 12.6256 9.125C12.745 9.01161 12.8407 8.99031 13.0006 8.98438C13.1605 8.99031 13.2563 9.01161 13.3756 9.125C13.5211 9.29361 13.5185 9.43856 13.5168 9.65575C13.5171 9.70716 13.5171 9.70716 13.5175 9.75961C13.518 9.87287 13.5176 9.98611 13.5172 10.0994C13.5173 10.1785 13.5174 10.2576 13.5176 10.3367C13.5178 10.5027 13.5175 10.6686 13.5169 10.8346C13.5162 11.0252 13.5165 11.2158 13.5171 11.4064C13.5178 11.5909 13.5177 11.7754 13.5173 11.9598C13.5173 12.0377 13.5174 12.1157 13.5177 12.1936C13.5198 12.9287 13.4361 13.5472 12.9381 14.125C12.9219 14.1457 12.9057 14.1664 12.8889 14.1877C12.5095 14.6562 11.9203 14.9436 11.3259 15.0089C11.019 15.0348 10.7136 15.0359 10.4059 15.0358C10.3469 15.0359 10.288 15.036 10.229 15.0361C10.0699 15.0364 9.9108 15.0365 9.7517 15.0365C9.65203 15.0365 9.55236 15.0366 9.45269 15.0366C9.10422 15.0369 8.75574 15.0371 8.40726 15.037C8.08364 15.037 7.76002 15.0374 7.4364 15.0378C7.15749 15.0383 6.87857 15.0384 6.59966 15.0384C6.43354 15.0384 6.26743 15.0385 6.10132 15.0388C5.94498 15.0391 5.78864 15.0391 5.6323 15.0389C5.57532 15.0389 5.51833 15.0389 5.46135 15.0391C4.60458 15.0418 3.83985 14.9003 3.20021 14.2931C3.08989 14.1833 2.99561 14.0651 2.90687 13.9375C2.88995 13.9132 2.87303 13.8889 2.8556 13.8639C2.60485 13.4757 2.49115 13.0363 2.49154 12.5793C2.49123 12.5267 2.49123 12.5267 2.49091 12.473C2.49032 12.3576 2.49019 12.2421 2.49012 12.1267C2.48992 12.0462 2.48971 11.9658 2.48949 11.8853C2.48912 11.7169 2.489 11.5486 2.48904 11.3802C2.48908 11.1858 2.48842 10.9915 2.48743 10.7971C2.48651 10.6097 2.48629 10.4222 2.48633 10.2347C2.48625 10.1551 2.48598 10.0756 2.4855 9.99602C2.48488 9.88486 2.48506 9.77374 2.48544 9.66258C2.48509 9.62975 2.48474 9.59692 2.48438 9.5631C2.486 9.37522 2.50111 9.2684 2.62562 9.125C2.79035 8.96851 2.97275 8.97101 3.18812 9Z" fill="#A1A1A1"/>
</svg>
