<svg width="22" height="22" viewBox="0 0 22 22" fill="none" xmlns="http://www.w3.org/2000/svg">
    <path d="M15.3594 1.35579C15.462 1.35616 15.5645 1.35492 15.6671 1.35356C16.3448 1.35039 16.844 1.52256 17.3478 1.98995C17.81 2.47834 17.8937 3.01303 17.8908 3.6628C17.891 3.72874 17.8912 3.79467 17.8915 3.86061C17.8921 4.04089 17.8919 4.22117 17.8916 4.40145C17.8914 4.59624 17.892 4.79102 17.8924 4.9858C17.8931 5.36705 17.8932 5.7483 17.893 6.12955C17.8928 6.43951 17.8928 6.74947 17.8931 7.05943C17.8931 7.10359 17.8931 7.14774 17.8932 7.19324C17.8932 7.28295 17.8933 7.37265 17.8934 7.46236C17.894 8.30319 17.8937 9.14401 17.8932 9.98484C17.8928 10.7536 17.8934 11.5223 17.8944 12.291C17.8954 13.081 17.8958 13.8709 17.8956 14.6608C17.8954 15.104 17.8955 15.5473 17.8963 15.9905C17.8969 16.3679 17.8969 16.7452 17.8962 17.1225C17.8958 17.3149 17.8957 17.5073 17.8964 17.6997C17.897 17.876 17.8968 18.0524 17.8959 18.2288C17.8958 18.2923 17.8959 18.3559 17.8963 18.4194C17.9008 19.1026 17.7248 19.5967 17.2592 20.0986C16.7693 20.5622 16.2256 20.6476 15.5763 20.6441C15.4737 20.6438 15.3713 20.645 15.2687 20.6464C14.591 20.6495 14.0918 20.4774 13.588 20.01C13.1258 19.5216 13.0421 18.9869 13.045 18.3371C13.0448 18.2712 13.0446 18.2052 13.0443 18.1393C13.0437 17.959 13.0438 17.7787 13.0442 17.5985C13.0444 17.4037 13.0438 17.2089 13.0434 17.0141C13.0427 16.6329 13.0426 16.2516 13.0428 15.8704C13.043 15.5604 13.043 15.2504 13.0427 14.9405C13.0427 14.8963 13.0427 14.8522 13.0426 14.8067C13.0426 14.717 13.0425 14.6273 13.0424 14.5376C13.0418 13.6967 13.0421 12.8559 13.0426 12.0151C13.043 11.2463 13.0424 10.4776 13.0414 9.70887C13.0404 8.91896 13.0399 8.12905 13.0402 7.33913C13.0404 6.89589 13.0403 6.45264 13.0395 6.0094C13.0389 5.63207 13.0389 5.25474 13.0396 4.87742C13.04 4.68502 13.0401 4.49264 13.0394 4.30025C13.0388 4.12388 13.039 3.94753 13.0399 3.77116C13.04 3.70761 13.0399 3.64405 13.0395 3.5805C13.035 2.89728 13.211 2.40321 13.6766 1.90133C14.1665 1.43769 14.7102 1.35227 15.3594 1.35579Z" fill="white"/>
    <path d="M6.42195 1.35579C6.52455 1.35616 6.62704 1.35492 6.72963 1.35356C7.40728 1.35039 7.90651 1.52256 8.41028 1.98995C8.87251 2.47834 8.9562 3.01303 8.95331 3.6628C8.95349 3.72874 8.95372 3.79467 8.95401 3.86061C8.95463 4.04089 8.95445 4.22117 8.95413 4.40145C8.95393 4.59624 8.95446 4.79102 8.9549 4.9858C8.95564 5.36705 8.95568 5.7483 8.95545 6.12955C8.95528 6.43951 8.95534 6.74947 8.95557 7.05943C8.9556 7.10359 8.95564 7.14774 8.95567 7.19324C8.95574 7.28295 8.9558 7.37265 8.95587 7.46236C8.95646 8.30319 8.95622 9.14401 8.95573 9.98484C8.9553 10.7536 8.95586 11.5223 8.95689 12.291C8.95794 13.081 8.95835 13.8709 8.95806 14.6608C8.95791 15.104 8.95801 15.5473 8.95876 15.9905C8.95939 16.3679 8.95942 16.7452 8.95867 17.1225C8.95831 17.3149 8.95821 17.5073 8.95887 17.6997C8.95947 17.876 8.95926 18.0524 8.95843 18.2288C8.95827 18.2923 8.9584 18.3559 8.95885 18.4194C8.96334 19.1026 8.7873 19.5967 8.32166 20.0986C7.83178 20.5622 7.28811 20.6476 6.63885 20.6441C6.53625 20.6438 6.43375 20.645 6.33116 20.6464C5.65351 20.6495 5.15428 20.4774 4.65052 20.01C4.18829 19.5216 4.1046 18.9869 4.10749 18.3371C4.10731 18.2712 4.10708 18.2052 4.10679 18.1393C4.10617 17.959 4.10635 17.7787 4.10667 17.5985C4.10687 17.4037 4.10633 17.2089 4.10589 17.0141C4.10516 16.6329 4.10512 16.2516 4.10534 15.8704C4.10552 15.5604 4.10546 15.2504 4.10523 14.9405C4.10519 14.8963 4.10516 14.8522 4.10513 14.8067C4.10506 14.717 4.105 14.6273 4.10493 14.5376C4.10434 13.6967 4.10457 12.8559 4.10507 12.0151C4.10549 11.2463 4.10494 10.4776 4.10391 9.70887C4.10286 8.91896 4.10245 8.12905 4.10273 7.33913C4.10288 6.89589 4.10279 6.45264 4.10204 6.0094C4.1014 5.63207 4.10138 5.25474 4.10213 4.87742C4.10249 4.68502 4.10258 4.49264 4.10193 4.30025C4.10133 4.12388 4.10154 3.94753 4.10237 3.77116C4.10253 3.70761 4.1024 3.64405 4.10195 3.5805C4.09746 2.89728 4.27349 2.40321 4.73914 1.90133C5.22902 1.43769 5.77269 1.35227 6.42195 1.35579Z" fill="white"/>
</svg>
