<svg width="20" height="20" viewBox="0 0 20 20" fill="none" xmlns="http://www.w3.org/2000/svg">
    <path d="M16.6654 10.8335C16.6654 15.0002 13.7487 17.0835 10.282 18.2919C10.1005 18.3534 9.90331 18.3505 9.7237 18.2835C6.2487 17.0835 3.33203 15.0002 3.33203 10.8335V5.00021C3.33203 4.7792 3.41983 4.56724 3.57611 4.41096C3.73239 4.25468 3.94435 4.16688 4.16536 4.16688C5.83203 4.16688 7.91536 3.16688 9.36536 1.90021C9.54191 1.74938 9.76649 1.6665 9.9987 1.6665C10.2309 1.6665 10.4555 1.74938 10.632 1.90021C12.0904 3.17521 14.1654 4.16688 15.832 4.16688C16.053 4.16688 16.265 4.25468 16.4213 4.41096C16.5776 4.56724 16.6654 4.7792 16.6654 5.00021V10.8335Z" stroke="#00D492" stroke-width="1.66667" stroke-linecap="round" stroke-linejoin="round"/>
</svg>
