<svg width="26" height="26" viewBox="0 0 26 26" fill="none" xmlns="http://www.w3.org/2000/svg">
    <g clip-path="url(#clip0_4_5033)">
        <path d="M13.93 4.50426C14.3182 4.82674 14.516 5.18498 14.5723 5.6877C14.5893 6.07057 14.4647 6.33842 14.2717 6.66464C14.2049 6.79901 14.2049 6.79901 14.2388 6.9241C14.3547 7.12023 14.4933 7.294 14.6357 7.47139C14.8893 7.79203 15.1374 8.11559 15.3784 8.44575C15.6345 8.79606 15.8952 9.14237 16.1592 9.48677C16.3852 9.78181 16.6086 10.0778 16.8225 10.3818C17.3953 11.1925 17.9534 11.9387 18.9617 12.2099C19.7081 12.3329 20.4542 12.2294 21.0799 11.7897C21.6542 11.3538 22.1521 10.8095 22.6592 10.2993C22.7322 10.226 22.8053 10.1527 22.8784 10.0794C23.0551 9.90208 23.2317 9.72462 23.4082 9.54707C23.3768 9.50057 23.3768 9.50057 23.3448 9.45312C23.3036 9.39181 23.3036 9.39181 23.2616 9.32927C23.2344 9.28884 23.2072 9.24841 23.1792 9.20675C22.9282 8.81951 22.8498 8.39191 22.9321 7.93794C23.0455 7.51963 23.3045 7.19745 23.6621 6.95723C24.1151 6.72735 24.5303 6.6795 25.0142 6.83345C25.4756 7.01986 25.7446 7.32091 25.9473 7.76973C26.0633 8.11796 26.0647 8.65346 25.909 8.99324C25.7097 9.29812 25.4632 9.58492 25.1348 9.7502C25.0845 9.7502 25.0342 9.7502 24.9824 9.7502C24.9868 9.81924 24.9868 9.81924 24.9912 9.88969C24.9906 10.1742 24.9109 10.4433 24.8419 10.7176C24.827 10.7784 24.8121 10.8392 24.7967 10.9019C24.7557 11.068 24.7144 11.2339 24.6729 11.3999C24.6382 11.5387 24.6037 11.6777 24.5692 11.8167C24.4878 12.1447 24.4059 12.4726 24.3238 12.8005C24.2393 13.1378 24.1556 13.4754 24.0723 13.813C24.0006 14.1037 23.9283 14.3943 23.8556 14.6847C23.8123 14.8578 23.7692 15.031 23.7266 15.2043C23.6791 15.3977 23.6303 15.5909 23.5815 15.784C23.5677 15.8409 23.5539 15.8978 23.5397 15.9563C23.3767 16.5921 23.3767 16.5921 23.1543 16.8088C22.9011 16.942 22.7113 16.9805 22.4218 16.9828C22.3669 16.9836 22.3669 16.9836 22.3109 16.9843C22.1878 16.9858 22.0648 16.9862 21.9417 16.9866C21.8517 16.9874 21.7616 16.9883 21.6715 16.9892C21.4215 16.9916 21.1715 16.993 20.9215 16.9942C20.7047 16.9954 20.4879 16.9971 20.271 16.9987C19.4895 17.0047 18.7081 17.0084 17.9265 17.0115C17.8213 17.0119 17.716 17.0124 17.6107 17.0128C15.6519 17.021 13.6932 17.0254 11.7344 17.0266C11.5704 17.0267 11.4064 17.0268 11.2424 17.0269C11.2017 17.0269 11.161 17.027 11.1191 17.027C10.4477 17.0274 9.77627 17.0287 9.10485 17.0303C8.40484 17.032 7.70483 17.0329 7.00482 17.0331C6.61587 17.0332 6.22693 17.0336 5.83798 17.0349C5.51067 17.036 5.18336 17.0365 4.85604 17.036C4.68975 17.0357 4.52348 17.0359 4.35719 17.0368C4.17702 17.0377 3.99689 17.0374 3.81671 17.0367C3.76458 17.0372 3.71245 17.0378 3.65874 17.0384C3.34763 17.0356 3.09813 16.9953 2.8418 16.8088C2.62043 16.5204 2.55617 16.184 2.47192 15.8351C2.45661 15.7736 2.44131 15.7122 2.42554 15.6488C2.38392 15.4812 2.34279 15.3134 2.30187 15.1455C2.25883 14.9694 2.21519 14.7935 2.17162 14.6175C2.09858 14.3222 2.02593 14.0267 1.95356 13.7312C1.85164 13.315 1.74895 12.899 1.64613 12.483C1.57476 12.1941 1.50358 11.9052 1.43243 11.6162C1.41523 11.5464 1.39802 11.4765 1.3808 11.4066C1.32419 11.1769 1.2678 10.9471 1.21151 10.7173C1.19729 10.6596 1.18307 10.6019 1.16842 10.5425C1.1554 10.4891 1.14238 10.4358 1.12896 10.3809C1.11766 10.3348 1.10637 10.2888 1.09472 10.2413C1.06446 10.1057 1.06446 10.1057 1.04012 9.93998C1.02929 9.79852 1.02929 9.79852 0.932348 9.73929C0.881486 9.72112 0.881486 9.72112 0.829596 9.70259C0.45314 9.53932 0.226296 9.24867 0.0488338 8.88692C-0.0694961 8.52954 -0.0653022 8.02016 0.0773982 7.67134C0.325535 7.21224 0.664678 6.92575 1.16681 6.77394C1.58256 6.6921 1.95881 6.76683 2.33399 6.95723C2.69158 7.19745 2.95063 7.51963 3.06397 7.93794C3.14389 8.38442 3.06702 8.80003 2.8418 9.1916C2.72754 9.34712 2.72754 9.34712 2.63868 9.44551C2.70633 9.59578 2.78013 9.701 2.89691 9.81684C2.92862 9.84853 2.96032 9.88023 2.99299 9.91289C3.02722 9.94659 3.06144 9.98029 3.0967 10.015C3.14968 10.0678 3.14968 10.0678 3.20374 10.1216C3.31666 10.234 3.42993 10.346 3.54322 10.458C3.61892 10.5332 3.69459 10.6084 3.77025 10.6836C3.90964 10.8222 4.04917 10.9606 4.18886 11.0989C4.35955 11.2679 4.53013 11.437 4.69849 11.6083C5.22698 12.1037 5.92013 12.2638 6.62223 12.251C7.36582 12.1995 7.97463 11.8653 8.47852 11.3244C8.88632 10.8423 9.25397 10.3261 9.62683 9.81695C9.84811 9.51503 10.0731 9.21618 10.3003 8.91865C10.3338 8.87473 10.3674 8.8308 10.4019 8.78554C10.5791 8.5537 10.7566 8.32214 10.9343 8.09068C10.9887 8.01963 10.9887 8.01963 11.0442 7.94714C11.113 7.85727 11.182 7.76749 11.251 7.67781C11.4555 7.41071 11.6472 7.13797 11.8301 6.85567C11.8077 6.82139 11.7854 6.78712 11.7623 6.75181C11.4728 6.30223 11.3609 5.91318 11.4746 5.38301C11.5978 4.97991 11.8446 4.62551 12.2046 4.39912C12.763 4.14882 13.4185 4.13551 13.93 4.50426Z" fill="#FFB020"/>
        <path d="M3.66519 18.5285C3.69797 18.5284 3.73075 18.5283 3.76452 18.5281C3.87541 18.5278 3.9863 18.5278 4.0972 18.5278C4.17708 18.5277 4.25697 18.5275 4.33685 18.5273C4.55721 18.5268 4.77756 18.5266 4.99792 18.5264C5.23525 18.5262 5.47258 18.5258 5.70991 18.5253C6.28348 18.5243 6.85704 18.5238 7.43061 18.5234C7.7005 18.5231 7.9704 18.5229 8.2403 18.5226C9.13716 18.5217 10.034 18.521 10.9309 18.5206C11.1637 18.5205 11.3966 18.5204 11.6294 18.5203C11.6873 18.5203 11.7452 18.5203 11.8048 18.5203C12.7428 18.5198 13.6807 18.5185 14.6187 18.5169C15.581 18.5152 16.5433 18.5143 17.5057 18.5141C18.0463 18.514 18.5868 18.5136 19.1274 18.5123C19.5877 18.5112 20.048 18.5108 20.5083 18.5113C20.7432 18.5115 20.9782 18.5114 21.2131 18.5104C21.4281 18.5095 21.6431 18.5096 21.8581 18.5104C21.936 18.5105 22.0138 18.5103 22.0917 18.5097C22.1974 18.5089 22.3031 18.5094 22.4089 18.5102C22.497 18.5101 22.497 18.5101 22.5869 18.51C22.7865 18.5412 22.8964 18.614 23.0537 18.7384C23.2355 18.9966 23.2291 19.2467 23.2281 19.5509C23.2283 19.5994 23.2286 19.6478 23.2289 19.6977C23.2292 19.7998 23.2291 19.9019 23.2287 20.004C23.2283 20.1598 23.2297 20.3155 23.2314 20.4714C23.2314 20.5708 23.2314 20.6702 23.2313 20.7697C23.2318 20.816 23.2324 20.8624 23.233 20.9101C23.2299 21.1937 23.1923 21.3572 23.0029 21.5822C22.7774 21.7866 22.5702 21.7917 22.2736 21.792C22.2067 21.7922 22.1397 21.7924 22.0708 21.7926C21.9964 21.7925 21.9219 21.7925 21.8475 21.7924C21.7686 21.7926 21.6897 21.7927 21.6107 21.7929C21.3935 21.7933 21.1763 21.7934 20.959 21.7934C20.7249 21.7935 20.4908 21.7939 20.2566 21.7943C19.7445 21.795 19.2324 21.7953 18.7203 21.7955C18.4006 21.7956 18.081 21.7958 17.7614 21.7961C16.8767 21.7967 15.992 21.7972 15.1074 21.7974C15.0508 21.7974 14.9941 21.7974 14.9358 21.7974C14.8506 21.7974 14.8506 21.7974 14.7638 21.7974C14.6487 21.7975 14.5337 21.7975 14.4187 21.7975C14.3616 21.7975 14.3046 21.7975 14.2458 21.7975C13.3208 21.7978 12.3958 21.7986 11.4708 21.7998C10.5216 21.801 9.57232 21.8017 8.62307 21.8017C8.08993 21.8018 7.55679 21.8021 7.02365 21.803C6.56977 21.8038 6.11589 21.804 5.662 21.8036C5.43035 21.8034 5.19871 21.8034 4.96706 21.8042C4.75506 21.8048 4.54307 21.8047 4.33107 21.8041C4.25432 21.804 4.17756 21.8042 4.10081 21.8046C3.99655 21.8052 3.89233 21.8048 3.78807 21.8042C3.73014 21.8042 3.67221 21.8043 3.61252 21.8043C3.36643 21.7752 3.1601 21.6798 3.00465 21.4838C2.82147 21.2274 2.83408 20.9926 2.83247 20.6846C2.83218 20.6418 2.83189 20.5989 2.83159 20.5548C2.83111 20.4643 2.83078 20.3737 2.83058 20.2832C2.83009 20.1455 2.82851 20.0078 2.82691 19.87C2.82658 19.7818 2.82631 19.6937 2.82612 19.6055C2.82549 19.5646 2.82486 19.5238 2.82422 19.4817C2.82527 19.2131 2.86837 19.0274 2.99513 18.7892C3.22569 18.5755 3.35518 18.529 3.66519 18.5285Z" fill="#FFB020"/>
    </g>
    <defs>
        <clipPath id="clip0_4_5033">
            <rect width="26" height="26" fill="white"/>
        </clipPath>
    </defs>
</svg>
