<svg width="22" height="22" viewBox="0 0 22 22" fill="none" xmlns="http://www.w3.org/2000/svg">
    <path d="M8.00213 1.20865C8.03869 1.21053 8.07524 1.21242 8.11291 1.21436C8.50008 1.30495 8.75919 1.51526 9.02264 1.80215C9.26063 2.05028 9.48036 2.26043 9.79607 2.4064C9.82903 2.4228 9.86199 2.43919 9.89594 2.45609C10.5287 2.75689 11.2231 2.76983 11.8854 2.54874C11.9631 2.51714 12.0401 2.48398 12.1164 2.44937C12.1554 2.43209 12.1944 2.41481 12.2346 2.397C12.5835 2.21875 12.8317 1.96424 13.095 1.67775C13.3468 1.4101 13.6106 1.23758 13.9855 1.20865C14.0214 1.20521 14.0573 1.20178 14.0943 1.19824C14.4459 1.21212 14.7548 1.33896 15.0732 1.47989C15.1377 1.50831 15.1377 1.50831 15.2034 1.53731C16.097 1.93829 17.5611 2.60237 17.9977 3.54776C18.1331 3.96852 18.0492 4.3973 17.916 4.80594C17.7114 5.46985 17.8506 6.15373 18.1611 6.75912C18.4852 7.35432 19.0034 7.76264 19.6359 7.99234C19.7595 8.02494 19.8841 8.05183 20.0092 8.07828C20.4076 8.16416 20.7069 8.28808 20.9653 8.61807C21.3665 9.2492 21.3282 10.1698 21.3251 10.8954C21.3251 10.9331 21.325 10.9709 21.3249 11.0097C21.3191 12.9214 21.3191 12.9214 20.7909 13.4618C20.7642 13.4861 20.7376 13.5103 20.7101 13.5353C20.6762 13.5664 20.6762 13.5664 20.6415 13.5981C20.4167 13.7671 20.1538 13.8024 19.8844 13.8571C19.1988 13.9995 18.5821 14.3764 18.1911 14.9613C17.7653 15.6609 17.6559 16.3381 17.8369 17.1329C17.8676 17.2486 17.9033 17.3558 17.9467 17.4669C18.0569 17.7811 18.0604 18.1613 17.936 18.4713C17.4968 19.2923 16.4364 19.8208 15.6452 20.2357C15.6008 20.2591 15.5564 20.2825 15.5106 20.3066C14.9675 20.5858 14.4302 20.825 13.819 20.6305C13.5208 20.5027 13.3264 20.2969 13.1288 20.0451C12.6987 19.5021 12.0374 19.2115 11.3591 19.132C10.6263 19.0822 9.91318 19.3253 9.35716 19.8049C9.20869 19.9482 9.08278 20.099 8.96087 20.2653C8.74727 20.547 8.47144 20.7343 8.12029 20.797C6.99676 20.9391 5.55187 19.8533 4.71552 19.2137C4.65678 19.168 4.65678 19.168 4.59686 19.1212C4.56346 19.0956 4.53006 19.07 4.49564 19.0435C4.20648 18.8086 4.02624 18.5228 3.98203 18.1501C3.96561 17.7649 4.06173 17.4566 4.19251 17.1004C4.41473 16.4889 4.32315 15.7962 4.06747 15.2099C3.7425 14.5768 3.24833 14.1147 2.57741 13.8629C2.40633 13.8096 2.2298 13.7814 2.05364 13.7502C1.62595 13.6739 1.27232 13.5488 0.997887 13.1922C0.634529 12.6026 0.671537 11.8228 0.673135 11.1538C0.673271 11.0359 0.67226 10.9182 0.671173 10.8003C0.664906 9.03137 0.664906 9.03137 1.11639 8.4462C1.42949 8.13243 1.81263 8.02245 2.23627 7.95381C2.70168 7.87584 3.06655 7.67586 3.4367 7.39078C3.4819 7.35799 3.52709 7.3252 3.57366 7.29141C4.08579 6.80205 4.34248 6.12478 4.38201 5.42798C4.38201 5.08433 4.31347 4.7693 4.20477 4.44473C4.08991 4.08814 4.06224 3.71599 4.20074 3.36078C4.72109 2.4168 6.15714 1.78492 7.11858 1.39664C7.15458 1.38209 7.19058 1.36754 7.22766 1.35255C7.48711 1.2511 7.72092 1.18928 8.00213 1.20865ZM8.50701 8.63687C7.81173 9.36044 7.5802 10.2763 7.59309 11.2536C7.61489 11.9546 7.92121 12.6595 8.37811 13.1916C8.39943 13.219 8.42076 13.2464 8.44273 13.2746C8.92408 13.8697 9.72455 14.2966 10.4836 14.3947C11.5307 14.4794 12.4638 14.2439 13.2781 13.5647C13.8759 13.0235 14.344 12.2268 14.4013 11.4069C14.4235 10.4382 14.2705 9.56587 13.6203 8.80875C13.599 8.78133 13.5776 8.75391 13.5557 8.72566C13.061 8.11423 12.2852 7.72292 11.5148 7.60562C11.4741 7.59909 11.4334 7.59255 11.3915 7.58582C10.3073 7.45342 9.27628 7.89276 8.50701 8.63687Z" fill="white"/>
</svg>
