<svg width="20" height="20" viewBox="0 0 20 20" fill="none" xmlns="http://www.w3.org/2000/svg">
    <path d="M17.4871 10.4047C17.409 11.8515 16.9135 13.2447 16.0605 14.4159C15.2075 15.587 14.0335 16.4861 12.6805 17.0043C11.3274 17.5225 9.85325 17.6377 8.43612 17.336C7.01899 17.0342 5.71961 16.3285 4.69503 15.304C3.67045 14.2795 2.96455 12.9802 2.66266 11.5631C2.36077 10.146 2.47581 8.6718 2.99388 7.31869C3.51194 5.96559 4.41086 4.79151 5.58196 3.93838C6.75305 3.08525 8.1462 2.5896 9.59298 2.51135C9.93048 2.49301 10.1071 2.89468 9.92798 3.18051C9.32872 4.13931 9.07212 5.27291 9.20006 6.39631C9.32799 7.51971 9.83291 8.56658 10.6324 9.36608C11.4319 10.1656 12.4788 10.6705 13.6022 10.7984C14.7256 10.9264 15.8592 10.6698 16.818 10.0705C17.1046 9.89135 17.5055 10.0672 17.4871 10.4047Z" stroke="#C27AFF" stroke-width="1.66667" stroke-linecap="round" stroke-linejoin="round"/>
</svg>
