<svg width="22" height="22" viewBox="0 0 22 22" fill="none" xmlns="http://www.w3.org/2000/svg">
    <path d="M1.83398 8.70833C1.834 7.68826 2.14345 6.6922 2.72144 5.85169C3.29943 5.01118 4.11879 4.36577 5.07129 4.0007C6.02379 3.63562 7.06463 3.56807 8.05633 3.80695C9.04803 4.04584 9.94394 4.57992 10.6257 5.33866C10.6738 5.39001 10.7318 5.43094 10.7963 5.45893C10.8608 5.48692 10.9303 5.50136 11.0007 5.50136C11.071 5.50136 11.1405 5.48692 11.205 5.45893C11.2695 5.43094 11.3275 5.39001 11.3756 5.33866C12.0552 4.57499 12.9513 4.03642 13.9446 3.79463C14.938 3.55285 15.9814 3.61931 16.936 3.98519C17.8906 4.35106 18.7111 4.99899 19.2883 5.84274C19.8656 6.68648 20.1722 7.68603 20.1673 8.70833C20.1673 10.8075 18.7923 12.375 17.4173 13.75L12.383 18.6202C12.2122 18.8164 12.0016 18.974 11.7652 19.0825C11.5288 19.191 11.272 19.248 11.0119 19.2497C10.7518 19.2513 10.4943 19.1976 10.2566 19.0921C10.0188 18.9866 9.80626 18.8317 9.63298 18.6377L4.58398 13.75C3.20898 12.375 1.83398 10.8167 1.83398 8.70833Z" stroke="#FF2056" stroke-width="1.83333" stroke-linecap="round" stroke-linejoin="round"/>
</svg>
