<svg width="46" height="40" viewBox="0 0 46 40" fill="none" xmlns="http://www.w3.org/2000/svg">
<path fill-rule="evenodd" clip-rule="evenodd" d="M17.837 0L17.6727 0.000236654C17.6392 0.000273062 17.6056 0.000291266 17.572 0.000303402L17.5026 0.000319584C16.7653 0.000449035 16.0286 0.000578487 15.2986 0.11739L15.1334 0.145222C15.0298 0.162413 14.9258 0.179252 14.8218 0.196103C14.2667 0.28605 13.7081 0.376555 13.1668 0.525276C12.8901 0.612733 12.7128 0.668759 12.5649 0.768376C12.3013 0.945937 12.1309 1.26199 11.657 2.14138C11.5836 2.27828 11.5102 2.41509 11.4365 2.55184L11.3203 2.76765C11.1763 3.03522 11.0315 3.30231 10.8853 3.5687C10.5849 4.11612 10.2872 4.66438 10.0003 5.21905C9.70158 5.79722 9.39526 6.36926 9.073 6.9347C8.77387 7.45886 8.48115 7.98586 8.1948 8.51712C7.97701 8.92137 7.75895 9.32527 7.53457 9.7259C7.23723 10.2561 6.94971 10.7911 6.66487 11.3281C6.32228 11.9739 5.97648 12.6169 5.61406 13.2519C5.30332 13.7958 5.00251 14.3443 4.70686 14.8965C4.6728 14.9601 4.63883 15.0238 4.60486 15.0875C4.44697 15.3835 4.28905 15.6796 4.12226 15.9707C3.8179 16.4944 3.52965 17.0257 3.24457 17.5601L3.20586 17.6327C2.96692 18.0807 2.72802 18.5287 2.48058 18.9721C2.11033 19.6328 1.75078 20.2991 1.39264 20.9665C1.2472 21.2375 1.10131 21.5083 0.954625 21.7786C0.911655 21.8578 0.868717 21.937 0.825804 22.0162C0.763542 22.1312 0.70126 22.2462 0.638973 22.3612C0.58981 22.4515 0.536896 22.5429 0.483263 22.6356C0.270052 23.0041 0.045482 23.3922 0 23.8059L0.00517806 23.9892C0.0111692 24.3467 0.0829502 24.542 0.303952 24.8278C0.736636 25.2245 1.11661 25.2363 1.68743 25.2304C1.78011 25.2294 1.87279 25.2288 1.96548 25.2288C2.21851 25.2292 2.47151 25.2286 2.72453 25.2268C2.99316 25.2249 3.26177 25.2241 3.5304 25.2237C4.03785 25.2231 4.54529 25.2214 5.05274 25.2188C5.63486 25.2157 6.21697 25.2139 6.7991 25.2125C8.00285 25.2098 9.20658 25.2054 10.4103 25.1995L10.5601 25.1988L10.5583 25.3722L10.5568 25.6029C10.5512 26.2888 10.6869 26.9399 10.8491 27.6038L10.9081 27.8375C11.0603 28.4422 11.2252 29.0292 11.4588 29.6074L11.5543 29.8383C11.9346 30.8692 12.4326 31.846 12.999 32.7874C15.1283 36.2263 18.6232 38.5849 22.5271 39.5462L22.7431 39.5979C24.02 39.9104 25.3104 40.0057 26.6217 39.9998C26.8648 39.9977 27.1079 39.9956 27.3511 39.995C27.418 39.9949 27.485 39.9948 27.5519 39.9948C28.4691 39.994 29.3872 39.9933 30.296 39.8531L30.4356 39.8299C30.8689 39.7596 31.2996 39.6783 31.7298 39.5913L31.9393 39.5482C32.3698 39.4604 32.7936 39.3607 33.2156 39.2383C33.4036 39.1673 33.5276 39.1204 33.6313 39.0455C33.8319 38.9007 33.9568 38.6509 34.3233 37.9179C34.4649 37.6338 34.6152 37.3553 34.7684 37.0774C35.0921 36.4915 35.4059 35.901 35.7131 35.3064C35.9846 34.7809 36.2609 34.2588 36.5457 33.7405C36.8158 33.2493 37.0791 32.7552 37.3369 32.2575C37.5634 31.8205 37.7928 31.3856 38.0295 30.954C38.3055 30.4518 38.578 29.9484 38.8418 29.4396C39.1645 28.8154 39.4896 28.1928 39.8217 27.5735L39.8846 27.4564C40.0924 27.069 40.3009 26.6819 40.5095 26.2949C41.0372 25.3164 41.5641 24.3377 42.0756 23.3506L42.1522 23.2024C42.4734 22.5812 42.7946 21.9602 43.1312 21.3471C43.474 20.7247 43.8059 20.0976 44.1306 19.4656C44.3989 18.943 44.6698 18.4225 44.9536 17.9081C45.198 17.466 45.4417 17.0235 45.6664 16.571L45.7378 16.4251C45.9345 16.0387 46.0464 15.6773 45.9077 15.2486L45.8207 15.1243C45.7335 14.9975 45.7019 14.9516 45.6671 14.9082C45.6474 14.8836 45.6265 14.8598 45.5939 14.8226C45.2051 14.4661 44.7354 14.4309 44.2297 14.4285C44.0991 14.43 43.9686 14.4314 43.838 14.4315C43.5957 14.4312 43.3535 14.4317 43.1113 14.4335C42.8543 14.4354 42.5973 14.4362 42.3403 14.4366C41.8546 14.4372 41.369 14.4389 40.8833 14.4415C40.3263 14.4446 39.7693 14.4464 39.2123 14.4478C38.0605 14.4505 36.9087 14.4549 35.7569 14.4608L35.6137 14.4615C35.6137 14.35 35.6137 14.2592 35.606 14.1691C35.5722 13.7763 35.3916 13.3961 34.4233 11.3584L34.3544 11.2139C33.6427 9.6934 32.772 8.22468 31.7294 6.907L31.5707 6.70687C30.8208 5.71366 29.8971 4.82266 28.9374 4.03265C28.8284 3.94431 28.7196 3.85597 28.6117 3.76628C26.5114 2.01857 23.849 0.817418 21.17 0.315192C21.0347 0.290305 20.8995 0.265313 20.7644 0.239285C19.7897 0.0508502 18.8278 0.000161815 17.837 0ZM20.3695 2.79639L20.5336 2.82115C22.4264 3.12116 24.2876 3.91676 25.8706 4.98361L25.9915 5.06461C27.4144 6.02734 28.7024 7.24081 29.7148 8.62896L29.8531 8.81071C30.2392 9.32501 30.5788 9.86655 30.9079 10.4185L31.0152 10.5982C31.9183 12.1252 32.5802 13.7288 33.1609 15.4002L33.2088 15.5364C33.2516 15.6581 33.2938 15.7801 33.336 15.902C33.4964 16.2857 33.692 16.6177 34.0893 16.7813C34.3534 16.8199 34.6154 16.8188 34.8818 16.8176L34.901 16.8175L35.148 16.8196C35.3707 16.8212 35.5933 16.8216 35.8159 16.8216C36.013 16.8217 36.2101 16.823 36.4071 16.8243L36.4465 16.8246L36.5149 16.825C36.9557 16.8277 37.3965 16.8291 37.8374 16.8299C38.3394 16.831 38.8414 16.8335 39.3434 16.8362C40.3758 16.8416 41.4081 16.8452 42.4404 16.8476C41.8489 18.0332 41.243 19.2134 40.6024 20.3733C40.3572 20.8182 40.1218 21.2677 39.8887 21.7191C39.5843 22.3083 39.2721 22.8925 38.9528 23.4737C38.7296 23.8806 38.5121 24.29 38.298 24.7017C38.0522 25.1743 37.8006 25.6432 37.5441 26.1101C37.2198 26.7006 36.9075 27.2967 36.5983 27.8952C36.3642 28.3473 36.1242 28.7957 35.8788 29.2418C35.4796 29.968 35.0982 30.703 34.7174 31.439C34.2342 32.3712 33.7416 33.2986 33.2491 34.226L33.2481 34.2277L33.2468 34.2303L33.2454 34.2329C33.0847 34.5354 32.924 34.838 32.7637 35.1407H32.6311L32.5443 34.9771C32.2006 34.3286 32.0288 34.0043 31.8545 33.6814C31.6802 33.3586 31.5035 33.0371 31.1502 32.3942C30.9257 31.9934 30.7073 31.589 30.4895 31.1846C30.1653 30.5832 29.8321 29.9876 29.4938 29.394C29.2442 28.9543 29.0074 28.5093 28.7757 28.06C28.5144 27.5593 28.2255 27.0756 27.9328 26.5927L27.8254 26.4143L27.7288 26.2556C27.6929 26.1882 27.6758 26.156 27.6676 26.1217C27.6602 26.0904 27.6602 26.0574 27.6602 25.9941C27.7542 25.9299 27.8486 25.866 27.9447 25.805C29.0475 25.0642 29.8545 23.8682 30.2451 22.6139L30.309 22.4122C30.6972 20.9436 30.4823 19.311 29.7811 17.9743C28.7919 16.3244 27.3328 15.2787 25.5128 14.7243C24.9579 14.5878 24.4102 14.5741 23.8408 14.5692L23.6159 14.5664C23.1465 14.5691 22.7237 14.6314 22.2695 14.7503C22.185 14.7707 22.1409 14.7813 22.0962 14.7869C22.0473 14.7929 21.9977 14.7929 21.8939 14.7929L21.8092 14.6275C21.3251 13.6832 20.8402 12.7403 20.3277 11.811C20.0805 11.3614 19.8427 10.9075 19.6073 10.4516C19.3437 9.94162 19.0761 9.43444 18.7995 8.93136C18.4575 8.30923 18.1243 7.68262 17.7929 7.05483C17.429 6.36604 17.0644 5.67777 16.6951 4.99189L16.5828 4.78315C16.4039 4.4518 16.2236 4.12136 16.0409 3.79213L15.9368 3.6044C15.8725 3.48871 15.8079 3.37316 15.743 3.25779L15.6579 3.105L15.5833 2.97206C15.5583 2.9197 15.5453 2.8924 15.5385 2.86363C15.5311 2.8323 15.5311 2.79922 15.5311 2.73011C17.0552 2.37238 18.8439 2.56001 20.3695 2.79639ZM18.9113 14.5278H7.97525C7.67588 15.0891 7.37677 15.6489 7.06856 16.2052C6.71863 16.8357 6.37072 17.4672 6.02973 18.1026C5.71638 18.6874 5.40077 19.2708 5.07832 19.8507L4.98927 20.0105L4.98875 20.0114C4.69692 20.5351 4.40509 21.0588 4.11659 21.5843L4.01093 21.7771L3.91096 21.9585L3.81908 22.1266C3.70821 22.3288 3.61905 22.532 3.53455 22.7464C4.59274 22.7517 5.65092 22.7577 6.7091 22.7645C7.22362 22.7678 7.73814 22.7711 8.25267 22.7737C8.70452 22.7758 9.15637 22.7783 9.60822 22.7814L9.67738 22.7819L9.71782 22.7822C9.92003 22.7836 10.1222 22.785 10.3245 22.7859C10.5527 22.7868 10.781 22.7878 11.0092 22.7896L11.2621 22.7916L11.5007 22.792L11.7201 22.7943C12.0632 22.7963 12.2988 22.8681 12.5858 23.0571C12.9167 23.371 13.0369 23.6719 13.066 24.1156C13.1828 26.3836 13.8132 28.6309 14.867 30.6386L14.9346 30.7662C15.0582 31.001 15.1862 31.2326 15.3198 31.4619C17.0199 34.2402 19.9598 36.208 23.0859 37.0084L23.2568 37.0503C24.4054 37.3339 25.5649 37.4288 26.7448 37.4243L26.956 37.4231C28.2263 37.4219 29.4573 37.353 30.709 37.129C30.709 37.0266 30.709 36.977 30.698 36.9299C30.6877 36.8855 30.6676 36.8434 30.6285 36.7617L30.5143 36.5579C30.4486 36.4397 30.3828 36.3216 30.3165 36.2038C30.2686 36.1186 30.2208 36.0333 30.1731 35.9479C30.0737 35.7694 29.9743 35.591 29.8746 35.4127C29.6645 35.0371 29.4562 34.6605 29.2485 34.2835C29.1391 34.0848 29.0296 33.8863 28.9201 33.6877C28.7644 33.4057 28.6088 33.1236 28.4534 32.8415C28.3411 32.6376 28.2288 32.4337 28.1165 32.2298L28.0496 32.1084C27.7562 31.576 27.4613 31.0444 27.1638 30.5142L27.0982 30.3973C27.0234 30.2642 26.9486 30.1311 26.8739 29.9979C26.351 29.065 25.8339 28.1292 25.3622 27.169L25.2741 26.9883C25.0064 27.0234 24.7413 27.0497 24.4713 27.0599C22.5597 27.1076 20.7896 26.5967 19.3753 25.265C18.1903 24.0733 17.5269 22.5786 17.4999 20.9019L17.4987 20.7001C17.498 20.5746 17.4982 20.4491 17.4995 20.3236C17.5524 18.7515 18.4067 17.295 19.5187 16.2309L19.6404 16.1185C19.6037 15.9902 19.5772 15.8974 19.5454 15.8065C19.4622 15.5684 19.3429 15.343 18.9113 14.5278ZM13.4764 4.51965C13.6902 4.71895 13.8067 4.95208 13.9355 5.20978L13.9422 5.22309L14.0195 5.37519C14.0741 5.48274 14.1286 5.59038 14.1829 5.6981C14.3252 5.97992 14.4687 6.26106 14.6122 6.5422L14.6977 6.70975C14.9965 7.29423 15.3113 7.86929 15.6286 8.44388C15.8175 8.7888 16.0025 9.13581 16.1875 9.48281C16.2217 9.54687 16.2561 9.61132 16.2903 9.67537C16.5128 10.0922 16.7363 10.5084 16.9641 10.9223L17.0767 11.1271C17.1467 11.2539 17.2168 11.3806 17.2872 11.5072L17.3804 11.6763L17.4622 11.8235C17.4908 11.8832 17.5051 11.913 17.5123 11.9445C17.5195 11.976 17.5195 12.0092 17.5195 12.0755H9.36712C9.78132 11.2471 9.91758 10.9746 10.0601 10.7057C10.1299 10.5742 10.2012 10.4434 10.3075 10.2487L10.4184 10.0443C10.7006 9.5266 10.991 9.01385 11.283 8.50165C11.6097 7.92537 11.9211 7.34139 12.2316 6.75625C12.5074 6.23641 12.7845 5.71749 13.0705 5.20316L13.1505 5.059C13.2537 4.8745 13.3591 4.69563 13.4764 4.51965Z" fill="white"/>
<path fill-rule="evenodd" clip-rule="evenodd" d="M36.4465 16.8246C36.4463 16.8246 36.4467 16.8246 36.4465 16.8246V16.8246Z" fill="#FDFDFD"/>
<path fill-rule="evenodd" clip-rule="evenodd" d="M33.1882 34.3406C33.2084 34.3025 33.2286 34.2644 33.2488 34.2263L33.2481 34.2277C33.2281 34.2654 33.2081 34.303 33.1882 34.3406Z" fill="#FDFDFD"/>
<path d="M26.3346 17.643C27.1431 18.2435 27.7768 19.0604 27.9709 20.0663C28.083 21.2802 27.8887 22.3043 27.1507 23.2933C26.4963 24.0698 25.5226 24.596 24.5104 24.6829C23.254 24.7611 22.3491 24.5538 21.3637 23.7406C21.3253 23.7129 21.2868 23.6851 21.2472 23.6565C20.4992 23.1023 20.1287 22.1047 19.9718 21.222C19.8566 20.1631 20.1922 19.2168 20.8449 18.3881C22.246 16.7695 24.5495 16.4236 26.3346 17.643Z" fill="#5EC8F5"/>
<path fill-rule="evenodd" clip-rule="evenodd" d="M9.44168 11.9265C9.41789 11.9741 9.39308 12.0237 9.36719 12.0755C9.39303 12.0238 9.41793 11.974 9.44168 11.9265Z" fill="#FCFCFC"/>
<path d="M21.3636 17.8418C21.3855 17.9293 21.4074 18.0168 21.4299 18.1069C21.1234 18.3058 21.1234 18.3058 20.8997 18.3058C21.0528 18.1526 21.2059 17.9995 21.3636 17.8418Z" fill="#56B2D3"/>
</svg>
