<svg width="22" height="22" viewBox="0 0 22 22" fill="none" xmlns="http://www.w3.org/2000/svg">
    <g clip-path="url(#clip0_4_6241)">
        <path d="M13.1907 -9.15412e-05C13.3895 0.0940808 13.4782 0.193699 13.5775 0.386627C13.6578 0.826979 13.4979 1.28716 13.3885 1.7101C13.3683 1.78971 13.3483 1.86933 13.3283 1.94897C13.2746 2.16216 13.2201 2.37515 13.1655 2.58811C13.1088 2.80972 13.0528 3.03151 12.9967 3.25328C12.9056 3.61344 12.8141 3.9735 12.7222 4.33348C12.5995 4.8145 12.4775 5.29572 12.3559 5.77702C12.3204 5.91741 12.2849 6.0578 12.2493 6.19818C12.2409 6.23162 12.2324 6.26506 12.2237 6.29951C12.1238 6.69428 12.0235 7.08893 11.923 7.48355C11.9107 7.53198 11.8984 7.58041 11.8857 7.6303C11.8752 7.67143 11.8647 7.71256 11.8539 7.75493C11.7978 7.97711 11.7423 8.19945 11.6868 8.42178C11.7143 8.42163 11.7417 8.42147 11.77 8.4213C12.4381 8.41751 13.1062 8.41466 13.7744 8.41288C14.0975 8.41199 14.4206 8.41079 14.7437 8.40882C15.0254 8.4071 15.307 8.40599 15.5887 8.40561C15.7378 8.40539 15.8869 8.40486 16.036 8.40361C16.2025 8.40222 16.369 8.40219 16.5356 8.40227C16.5849 8.40165 16.6342 8.40104 16.685 8.4004C16.9514 8.40178 17.1146 8.41223 17.3157 8.59366C17.4566 8.78139 17.485 8.93791 17.4782 9.1692C17.4111 9.47894 17.2188 9.72997 17.044 9.98972C16.9456 10.1371 16.851 10.2868 16.7563 10.4366C16.6807 10.556 16.6047 10.6752 16.5285 10.7943C16.365 11.0507 16.2037 11.3085 16.0428 11.5666C15.7465 12.0416 15.4479 12.5151 15.1485 12.9882C14.8885 13.3989 14.6298 13.8103 14.3724 14.2226C14.1152 14.6345 13.8566 15.0456 13.5969 15.456C13.49 15.6249 13.3834 15.7938 13.2767 15.9628C13.1494 16.1644 13.022 16.3661 12.8945 16.5676C12.6555 16.9453 12.4177 17.3238 12.181 17.703C11.8828 18.1807 11.5824 18.6569 11.2813 19.1327C11.0506 19.4972 10.8205 19.8621 10.5923 20.2281C10.5107 20.3587 10.429 20.4892 10.3472 20.6197C10.2364 20.7967 10.1265 20.9744 10.0173 21.1524C9.96418 21.238 9.91108 21.3236 9.85797 21.4091C9.83394 21.4487 9.80991 21.4884 9.78515 21.5292C9.65613 21.7357 9.54986 21.8917 9.32355 21.9999C9.08579 22.042 8.87334 22.0309 8.65485 21.9274C8.52311 21.8024 8.43507 21.6892 8.40197 21.5078C8.39964 21.0851 8.50513 20.6959 8.6102 20.2897C8.63031 20.2101 8.65037 20.1305 8.67038 20.0508C8.7241 19.8377 8.77857 19.6247 8.83317 19.4117C8.88986 19.1901 8.94585 18.9683 9.00191 18.7465C9.09304 18.3864 9.18457 18.0263 9.27643 17.6663C9.39917 17.1853 9.52113 16.7041 9.64279 16.2228C9.67829 16.0824 9.7138 15.942 9.74931 15.8016C9.75777 15.7682 9.76623 15.7348 9.77494 15.7003C9.87484 15.3055 9.97518 14.9109 10.0756 14.5163C10.088 14.4678 10.1003 14.4194 10.113 14.3695C10.1287 14.3078 10.1287 14.3078 10.1447 14.2449C10.2009 14.0227 10.2563 13.8004 10.3118 13.578C10.2844 13.5782 10.2569 13.5783 10.2287 13.5785C9.56054 13.5823 8.89241 13.5852 8.22428 13.5869C7.90117 13.5878 7.57807 13.589 7.25496 13.591C6.97331 13.5927 6.69166 13.5938 6.40999 13.5942C6.26089 13.5944 6.1118 13.595 5.9627 13.5962C5.79615 13.5976 5.62961 13.5976 5.46305 13.5975C5.41376 13.5982 5.36446 13.5988 5.31367 13.5994C5.04727 13.598 4.88408 13.5876 4.68292 13.4062C4.54205 13.2184 4.51369 13.0619 4.52045 12.8306C4.58756 12.5209 4.7799 12.2698 4.95462 12.0101C5.05308 11.8627 5.14763 11.713 5.24236 11.5632C5.31794 11.4438 5.394 11.3246 5.47012 11.2055C5.63362 10.9491 5.79493 10.6913 5.95587 10.4333C6.21121 10.0239 6.46801 9.61554 6.72602 9.20787C6.83285 9.03901 6.93952 8.87004 7.0462 8.70108C7.17352 8.49945 7.30086 8.29783 7.42839 8.09633C7.66739 7.71855 7.90517 7.34004 8.14191 6.96085C8.4401 6.4832 8.74044 6.00694 9.04161 5.53117C9.30153 5.12047 9.56029 4.70907 9.81769 4.29678C10.0749 3.8848 10.3335 3.47373 10.5932 3.06334C10.7 2.89448 10.8067 2.72551 10.9134 2.55655C11.0407 2.35491 11.168 2.1533 11.2956 1.9518C11.3162 1.91918 11.3368 1.88656 11.3581 1.85296C11.3999 1.78679 11.4418 1.72065 11.4837 1.65452C11.6088 1.45678 11.7325 1.25819 11.855 1.05885C11.8981 0.98912 11.8981 0.98912 11.942 0.917977C11.9981 0.827051 12.0539 0.735979 12.1095 0.644744C12.398 0.177957 12.6103 -0.062276 13.1907 -9.15412e-05Z" fill="white"/>
    </g>
    <defs>
        <clipPath id="clip0_4_6241">
            <rect width="22" height="22" fill="white"/>
        </clipPath>
    </defs>
</svg>
