<svg width="20" height="20" viewBox="0 0 20 20" fill="none" xmlns="http://www.w3.org/2000/svg">
    <path d="M9.99033 3.34485C10.0641 3.35677 10.1386 3.36445 10.2131 3.37106C10.6714 3.432 10.9837 3.87522 11.2637 4.21014C11.6033 4.66837 11.7944 5.13016 11.7587 5.70291C11.7129 5.97775 11.5459 6.16237 11.329 6.32791C10.4886 6.83479 9.47317 6.9754 8.52219 6.7464C8.2936 6.68707 8.07069 6.61361 7.8524 6.52322C7.84183 6.55011 7.83125 6.577 7.82036 6.6047C7.78844 6.68355 7.75518 6.76186 7.72087 6.83969C7.44924 7.47443 7.33674 8.13882 7.33727 8.82791C7.33723 8.88064 7.33723 8.88064 7.33719 8.93443C7.33947 9.22916 7.3669 9.51715 7.40563 9.80905C7.42193 9.95376 7.42575 10.089 7.42272 10.2342C7.46667 10.2181 7.51063 10.2021 7.55592 10.1856C8.34252 9.90648 9.06225 9.88071 9.88442 10.0094C9.91712 10.0142 9.94982 10.019 9.98351 10.0239C10.045 10.0335 10.1063 10.0449 10.1672 10.0582C10.439 10.1093 10.6158 10.0095 10.8529 9.8826C11.7716 9.41862 12.7399 9.13471 13.7728 9.13064C13.8479 9.12944 13.8479 9.12944 13.9246 9.1282C14.8242 9.12457 15.6206 9.44429 16.2899 10.0388C16.3172 10.0629 16.3445 10.0869 16.3726 10.1116C16.9612 10.6636 17.466 11.5479 17.5078 12.361C17.5272 13.5037 17.4358 14.5712 16.5946 15.4435C15.7845 16.2073 14.5414 16.679 13.4383 16.7576C13.4066 16.7599 13.3749 16.7622 13.3422 16.7646C12.5899 16.7898 11.8627 16.5585 11.307 16.052C11.2586 16.0042 11.2586 16.0042 11.2092 15.9554C11.0777 15.8898 11.061 15.8957 10.9283 15.9399C10.8663 15.9646 10.8046 15.9898 10.743 16.0154C10.684 16.0356 10.6247 16.0551 10.5653 16.074C10.5352 16.0836 10.5052 16.0932 10.4742 16.1031C8.55835 16.6978 6.56634 16.2968 4.81957 15.3872C4.28311 15.0997 3.78389 14.759 3.30508 14.3841C3.25046 14.3415 3.19486 14.3002 3.13912 14.2591C2.72493 13.8982 2.50544 13.349 2.46178 12.8123C2.36235 10.5035 3.84141 7.68067 5.3524 6.01541C5.41478 5.95894 5.47742 5.90276 5.54039 5.84695C5.73371 5.65982 5.79719 5.44597 5.88204 5.19754C6.04046 4.73754 6.30097 4.39832 6.64147 4.06228C6.66805 4.03575 6.69464 4.00921 6.72203 3.98187C7.60383 3.15702 8.87264 3.14947 9.99033 3.34485Z" fill="#FB2C36"/>
</svg>
