<svg width="20" height="20" viewBox="0 0 20 20" fill="none" xmlns="http://www.w3.org/2000/svg">
    <path d="M10.694 1.8168C10.4769 1.71776 10.241 1.6665 10.0023 1.6665C9.76367 1.6665 9.5278 1.71776 9.31066 1.8168L2.169 5.0668C2.02112 5.132 1.8954 5.2388 1.80713 5.37418C1.71887 5.50956 1.67188 5.66769 1.67188 5.8293C1.67188 5.99091 1.71887 6.14904 1.80713 6.28442C1.8954 6.4198 2.02112 6.5266 2.169 6.5918L9.319 9.85013C9.53613 9.94918 9.77201 10.0004 10.0107 10.0004C10.2493 10.0004 10.4852 9.94918 10.7023 9.85013L17.8523 6.60014C18.0002 6.53493 18.1259 6.42814 18.2142 6.29275C18.3025 6.15737 18.3495 5.99925 18.3495 5.83764C18.3495 5.67602 18.3025 5.5179 18.2142 5.38252C18.1259 5.24713 18.0002 5.14034 17.8523 5.07514L10.694 1.8168Z" stroke="#90A1B9" stroke-width="1.33333" stroke-linecap="round" stroke-linejoin="round"/>
    <path d="M1.66797 10C1.66758 10.1594 1.7129 10.3155 1.79857 10.45C1.88424 10.5844 2.00665 10.6914 2.1513 10.7583L9.31797 14.0167C9.53397 14.1145 9.76836 14.1651 10.0055 14.1651C10.2426 14.1651 10.477 14.1145 10.693 14.0167L17.843 10.7667C17.9905 10.7004 18.1155 10.5926 18.2028 10.4564C18.2901 10.3203 18.3359 10.1617 18.3346 10" stroke="#90A1B9" stroke-width="1.33333" stroke-linecap="round" stroke-linejoin="round"/>
    <path d="M1.66797 14.1665C1.66758 14.3259 1.7129 14.4821 1.79857 14.6165C1.88424 14.7509 2.00665 14.8579 2.1513 14.9248L9.31797 18.1832C9.53397 18.281 9.76836 18.3316 10.0055 18.3316C10.2426 18.3316 10.477 18.281 10.693 18.1832L17.843 14.9332C17.9905 14.8669 18.1155 14.7591 18.2028 14.6229C18.2901 14.4868 18.3359 14.3282 18.3346 14.1665" stroke="#90A1B9" stroke-width="1.33333" stroke-linecap="round" stroke-linejoin="round"/>
</svg>
