<svg width="20" height="20" viewBox="0 0 20 20" fill="none" xmlns="http://www.w3.org/2000/svg">
    <path d="M3.33248 12.4161C2.71334 11.7835 2.24628 11.0183 1.96667 10.1785C1.68706 9.33869 1.60223 8.44626 1.71861 7.5688C1.83499 6.69135 2.14952 5.85189 2.63839 5.114C3.12725 4.37611 3.77763 3.75915 4.54025 3.30985C5.30288 2.86054 6.15775 2.59068 7.04012 2.5207C7.92248 2.45072 8.8092 2.58246 9.63312 2.90594C10.457 3.22941 11.1965 3.73615 11.7956 4.38775C12.3947 5.03936 12.8376 5.81875 13.0908 6.66689H14.5825C15.3871 6.66679 16.1704 6.92549 16.8166 7.40475C17.4629 7.88402 17.9379 8.55844 18.1715 9.32839C18.405 10.0983 18.3847 10.923 18.1136 11.6805C17.8425 12.4381 17.3349 13.0883 16.6658 13.5352" stroke="white" stroke-width="1.66667" stroke-linecap="round" stroke-linejoin="round"/>
    <path d="M13.334 11.6665V16.6665" stroke="white" stroke-width="1.66667" stroke-linecap="round" stroke-linejoin="round"/>
    <path d="M6.66602 11.6665V16.6665" stroke="white" stroke-width="1.66667" stroke-linecap="round" stroke-linejoin="round"/>
    <path d="M10 13.3335V18.3335" stroke="white" stroke-width="1.66667" stroke-linecap="round" stroke-linejoin="round"/>
</svg>
