<svg width="20" height="20" viewBox="0 0 20 20" fill="none" xmlns="http://www.w3.org/2000/svg">
    <path d="M13.334 13.3332L15.834 6.6665L18.334 13.3332C17.609 13.8748 16.734 14.1665 15.834 14.1665C14.934 14.1665 14.059 13.8748 13.334 13.3332Z" stroke="#2B7FFF" stroke-width="1.66667" stroke-linecap="round" stroke-linejoin="round"/>
    <path d="M1.66602 13.3332L4.16602 6.6665L6.66602 13.3332C5.94102 13.8748 5.06602 14.1665 4.16602 14.1665C3.26602 14.1665 2.39102 13.8748 1.66602 13.3332Z" stroke="#2B7FFF" stroke-width="1.66667" stroke-linecap="round" stroke-linejoin="round"/>
    <path d="M5.83398 17.5H14.1673" stroke="#2B7FFF" stroke-width="1.66667" stroke-linecap="round" stroke-linejoin="round"/>
    <path d="M10 2.5V17.5" stroke="#2B7FFF" stroke-width="1.66667" stroke-linecap="round" stroke-linejoin="round"/>
    <path d="M2.5 5.83317H4.16667C5.83333 5.83317 8.33333 4.99984 10 4.1665C11.6667 4.99984 14.1667 5.83317 15.8333 5.83317H17.5" stroke="#2B7FFF" stroke-width="1.66667" stroke-linecap="round" stroke-linejoin="round"/>
</svg>
