<svg width="8" height="8" viewBox="0 0 8 8" fill="none" xmlns="http://www.w3.org/2000/svg">
    <path d="M4.26602 6.5335C4.35052 6.59688 4.44888 6.63927 4.55299 6.65718C4.65709 6.67509 4.76396 6.668 4.86479 6.63651C4.96562 6.60501 5.05753 6.55 5.13293 6.47602C5.20833 6.40204 5.26507 6.3112 5.29847 6.21098C5.33188 6.11077 5.34099 6.00405 5.32506 5.89962C5.30913 5.7952 5.26861 5.69605 5.20684 5.61036C5.14508 5.52466 5.06383 5.45487 4.9698 5.40673C4.87577 5.3586 4.77165 5.3335 4.66602 5.3335H0.666016" stroke="#4C82A0" stroke-width="0.666667" stroke-linecap="round" stroke-linejoin="round"/>
    <path d="M5.83268 2.66683C5.91791 2.55319 6.03077 2.46323 6.16055 2.40548C6.29033 2.34773 6.43271 2.32411 6.57419 2.33686C6.71566 2.34962 6.85152 2.39833 6.96888 2.47836C7.08623 2.5584 7.18118 2.6671 7.24471 2.79415C7.30823 2.9212 7.33822 3.06238 7.33184 3.20429C7.32546 3.34619 7.2829 3.48411 7.20822 3.60494C7.13355 3.72577 7.02922 3.82551 6.90515 3.89468C6.78109 3.96385 6.6414 4.00016 6.49935 4.00016H0.666016" stroke="#4C82A0" stroke-width="0.666667" stroke-linecap="round" stroke-linejoin="round"/>
    <path d="M3.26602 1.46683C3.35052 1.40345 3.44888 1.36106 3.55299 1.34315C3.65709 1.32524 3.76396 1.33232 3.86479 1.36382C3.96562 1.39532 4.05753 1.45032 4.13293 1.52431C4.20833 1.59829 4.26507 1.68913 4.29847 1.78934C4.33188 1.88956 4.34099 1.99628 4.32506 2.1007C4.30913 2.20513 4.26861 2.30427 4.20684 2.38997C4.14508 2.47566 4.06383 2.54546 3.9698 2.59359C3.87577 2.64173 3.77165 2.66683 3.66602 2.66683H0.666016" stroke="#4C82A0" stroke-width="0.666667" stroke-linecap="round" stroke-linejoin="round"/>
</svg>
