<svg width="20" height="20" viewBox="0 0 20 20" fill="none" xmlns="http://www.w3.org/2000/svg">
    <path d="M10.0025 1.25C12.2197 1.24944 14.3742 1.98574 16.1273 3.34315C17.8804 4.70055 19.1326 6.60208 19.6872 8.74878C20.2418 10.8955 20.0672 13.1656 19.1909 15.2023C18.3146 17.2389 16.7863 18.9266 14.8463 20H5.15878C3.21875 18.9266 1.69046 17.2389 0.814169 15.2023C-0.0621173 13.1656 -0.236702 10.8955 0.317862 8.74878C0.872426 6.60208 2.12469 4.70055 3.87778 3.34315C5.63086 1.98574 7.78535 1.24944 10.0025 1.25ZM15.665 16.9125C16.4111 16.1708 17.0026 15.2883 17.4051 14.3163C17.8077 13.3443 18.0133 12.3021 18.01 11.25H16.2525V10H17.9138C17.7768 9.12646 17.4959 8.28167 17.0825 7.5H15.0025V6.25H16.2575C15.2878 5.0309 13.9818 4.123 12.5013 3.63875V5H11.2513V3.33875C10.4229 3.20978 9.57962 3.20978 8.75128 3.33875V5H7.50128V3.63875C6.02171 4.12498 4.71624 5.03251 3.74503 6.25H5.00003V7.5H2.92003C2.50669 8.28167 2.2258 9.12646 2.08878 10H3.75003V11.25H1.99253C1.99253 13.3888 2.82503 15.4 4.33753 16.9125C4.54753 17.1208 4.76586 17.3167 4.99253 17.5H8.75003L9.46378 7.5H10.535L11.2488 17.5H15.0063C15.2338 17.3167 15.4521 17.1208 15.6613 16.9125H15.665Z" fill="white"/>
</svg>
